<?xml version="1.0"?>
<svg width="768" height="768" xmlns="http://www.w3.org/2000/svg" xmlns:svg="http://www.w3.org/2000/svg" version="1.1">

&quot;
 <metadata id="metadata1">Created by https://svgstud.io and licensed under CC-BY-SA 4.0 license. Please attribute https://svgstud.io</metadata>
 <metadata id="prompt">an oak tree inside by a gradient circle like a loading indicator</metadata>
 <metadata id="version">7</metadata>
 <metadata id="metadata2">https://svgstud.io</metadata>
 <metadata id="uid">8a1278bc657f2c913909be4adb2b9333c8c692437c0de95430ef219641af217c</metadata>
 <g class="layer" display="inline">
  <title>Layer 1</title>
  <path d="m387.1,742.86c-7.48,-0.08 -18.33,-0.53 -24.1,-1.01c-5.77,-0.48 -18.82,-2.24 -29,-3.92c-10.18,-1.67 -23.95,-4.36 -30.61,-5.98c-6.66,-1.63 -20.16,-5.68 -30,-9.01c-9.84,-3.34 -22.61,-8.12 -28.39,-10.63c-5.78,-2.51 -15.45,-7.04 -21.5,-10.06c-6.05,-3.03 -14.6,-7.54 -19,-10.02c-4.4,-2.49 -12.95,-7.69 -19,-11.56c-6.05,-3.88 -16.85,-11.42 -24,-16.75c-7.15,-5.34 -18.16,-14.15 -24.47,-19.57c-6.3,-5.42 -16.24,-14.58 -22.09,-20.35c-5.84,-5.77 -14.58,-15 -19.42,-20.5c-4.84,-5.5 -12.55,-14.81 -17.12,-20.69c-4.58,-5.88 -12.55,-16.91 -17.72,-24.5c-5.17,-7.6 -12.25,-18.76 -15.72,-24.81c-3.48,-6.05 -9.81,-18.25 -14.06,-27.1c-4.26,-8.86 -9.8,-21.79 -12.32,-28.73c-2.52,-6.95 -5.67,-16.38 -6.99,-20.97c-1.33,-4.59 -3.62,-14.15 -5.08,-21.24c-1.46,-7.1 -3.52,-19.44 -4.58,-27.43c-1.28,-9.74 -1.92,-20.52 -1.92,-32.67c-0.01,-9.98 0.67,-24.61 1.5,-32.5c0.84,-7.9 2.2,-18.63 3.04,-23.86c0.84,-5.23 2.81,-15.12 4.39,-22c1.57,-6.88 4.76,-18.35 7.08,-25.5c2.32,-7.15 7.49,-20.65 11.5,-30c4,-9.35 10.17,-22.4 13.71,-29c3.54,-6.6 9.09,-16.28 12.32,-21.5c3.24,-5.22 9.23,-14.22 13.32,-20c4.09,-5.78 10.98,-14.87 15.3,-20.22c4.33,-5.34 12.52,-14.79 18.19,-21c5.68,-6.2 15.68,-16.09 22.23,-21.96c6.55,-5.88 15.51,-13.55 19.91,-17.04c4.4,-3.5 12.95,-9.98 19,-14.4c6.05,-4.42 17.3,-11.96 25,-16.76c7.7,-4.8 20.97,-12.25 29.5,-16.56c8.53,-4.31 21.8,-10.32 29.5,-13.35c7.7,-3.02 19.18,-7.16 25.5,-9.2c6.32,-2.03 17.5,-5.23 24.83,-7.11c7.32,-1.88 19.36,-4.53 26.74,-5.89c7.37,-1.37 18.93,-3.17 25.67,-4c6.74,-0.84 18.56,-1.8 26.26,-2.14c10.03,-0.45 18.65,-0.14 30.39,1.07c9.02,0.94 21.39,2.53 27.5,3.54c6.11,1.02 17.18,3.26 24.61,4.99c7.43,1.72 19.57,5.17 27,7.66c7.43,2.49 18.84,6.77 25.37,9.5c6.53,2.74 18.68,8.39 27,12.56c8.32,4.16 19.63,10.28 25.13,13.6c5.5,3.32 14.73,9.17 20.5,13.02c5.77,3.85 14.33,9.94 19,13.53c4.67,3.59 13.45,10.89 19.5,16.22c6.05,5.32 16.57,15.25 23.38,22.06c6.81,6.81 17.01,17.56 22.67,23.88c5.66,6.32 13.44,15.32 17.29,20c3.85,4.68 11.93,15.7 17.95,24.5c6.02,8.8 14.44,21.82 18.71,28.94c4.28,7.11 10.47,18.58 13.75,25.5c3.29,6.91 7.31,15.71 8.94,19.56c1.63,3.85 5.43,13.73 8.45,21.95c3.02,8.23 7,21.12 8.85,28.66c1.85,7.54 4.33,19.39 5.5,26.34c1.98,11.74 2.11,15.42 1.76,52.34c-0.37,39.71 -0.37,39.71 -3.58,52.21c-1.78,6.88 -4.84,17.68 -6.8,24c-1.97,6.32 -5.61,16.68 -8.09,23c-2.48,6.32 -7.58,17.57 -11.34,25c-3.76,7.42 -10.04,18.9 -13.96,25.5c-3.92,6.6 -9.88,16.05 -13.24,21c-3.36,4.95 -8.84,12.6 -12.16,17c-3.33,4.4 -10.36,13.17 -15.63,19.5c-5.27,6.33 -14.06,16 -19.52,21.51c-5.46,5.5 -14.88,14.52 -20.93,20.04c-6.05,5.52 -15.5,13.62 -21,18c-5.5,4.38 -13.88,10.76 -18.62,14.18c-4.74,3.42 -15.09,10.3 -23,15.3c-7.91,5 -22.93,13.29 -33.38,18.42c-10.45,5.13 -24.67,11.38 -31.59,13.89c-6.93,2.51 -17.73,6.11 -24,8.02c-6.28,1.9 -18.61,5.04 -27.41,6.97c-8.8,1.94 -20.73,4.23 -26.5,5.09c-5.77,0.87 -16.3,2.03 -23.4,2.58c-7.09,0.55 -19.01,0.94 -26.5,0.86zm207.31,-81.97c0.5,0.06 3.2,-1.33 6,-3.09c2.8,-1.77 10.47,-7.28 17.05,-12.25c6.58,-4.98 17.32,-13.97 23.87,-19.98c6.55,-6.01 16.87,-16.36 22.93,-23c6.05,-6.64 15.73,-18.15 21.5,-25.57c5.77,-7.42 13.96,-18.67 18.21,-25c4.24,-6.33 10.65,-16.67 14.23,-23c3.59,-6.33 9.22,-17.35 12.53,-24.5c3.3,-7.15 7.63,-17.32 9.6,-22.61c1.98,-5.28 4.69,-13.38 6.03,-18c1.33,-4.61 3.6,-13.6 5.03,-19.97c1.42,-6.37 3.27,-17.62 4.09,-25c0.85,-7.6 1.5,-22.44 1.51,-34.2c0.01,-11.62 -0.66,-27.26 -1.52,-35.5c-0.84,-8.1 -2.2,-18.32 -3.02,-22.72c-0.82,-4.4 -3.06,-14.35 -4.97,-22.11c-1.91,-7.76 -5.53,-20.14 -8.05,-27.5c-2.53,-7.37 -7.49,-19.71 -11.04,-27.43c-3.54,-7.73 -9.62,-19.65 -13.51,-26.5c-3.89,-6.86 -11.27,-18.84 -16.41,-26.64c-5.14,-7.8 -13.85,-19.95 -19.36,-27c-5.51,-7.05 -16.68,-20 -24.82,-28.78c-8.15,-8.78 -20.65,-21.3 -27.8,-27.82c-7.14,-6.53 -19,-16.63 -26.35,-22.44c-7.35,-5.82 -18.26,-13.85 -24.25,-17.86c-5.99,-4 -17.08,-10.86 -24.64,-15.24c-7.56,-4.38 -19.6,-10.68 -26.75,-13.98c-7.15,-3.31 -17.5,-7.81 -23,-10c-5.5,-2.19 -16.75,-6.05 -25,-8.57c-8.25,-2.52 -19.73,-5.69 -25.5,-7.04c-5.77,-1.35 -15.61,-3.17 -21.86,-4.03c-6.25,-0.87 -18.92,-2.04 -28.16,-2.59c-11.21,-0.67 -22.58,-0.68 -34.14,-0.02c-9.54,0.55 -22.74,1.7 -29.34,2.56c-6.6,0.86 -16.5,2.48 -22,3.59c-5.5,1.11 -16.3,3.83 -24,6.05c-7.7,2.22 -18.68,5.6 -24.41,7.51c-5.72,1.92 -14.95,5.29 -20.5,7.5c-5.55,2.21 -15.04,6.37 -21.09,9.25c-6.05,2.87 -15.95,8.08 -22,11.57c-6.05,3.49 -17.07,10.39 -24.5,15.34c-7.43,4.95 -18.22,12.63 -24,17.07c-5.78,4.45 -14.78,11.98 -20,16.74c-5.22,4.77 -12.03,11.08 -15.13,14.02c-3.09,2.94 -9.99,10.01 -15.33,15.71c-5.34,5.7 -13.23,14.79 -17.54,20.21c-4.32,5.41 -10.95,14.24 -14.75,19.63c-3.79,5.39 -9.76,14.52 -13.26,20.3c-3.5,5.78 -9.48,16.8 -13.29,24.5c-3.81,7.7 -9.34,19.97 -12.29,27.27c-2.95,7.3 -6.7,17.87 -8.33,23.5c-1.63,5.63 -4.35,15.75 -6.04,22.51c-1.7,6.75 -3.94,17.32 -4.99,23.5c-1.05,6.17 -2.45,18.64 -3.12,27.72c-0.72,9.73 -0.97,23.67 -0.62,34c0.33,9.62 0.83,18.59 1.12,19.93c0.29,1.33 0.87,2.74 1.3,3.12c0.42,0.39 5.04,1.23 10.27,1.87c5.23,0.64 12.98,2.27 17.24,3.61c4.25,1.33 9.54,3.57 11.75,4.96c2.2,1.4 4.01,2.74 4.01,3c0,0.25 -1.33,1.15 -2.97,1.99c-1.93,1 -2.76,2.05 -2.39,3.03c0.45,1.17 -0.3,1.49 -3.53,1.49c-2.26,0 -4.11,0.42 -4.11,0.94c0,0.52 0.41,1.2 0.92,1.51c0.5,0.31 4.67,1.64 9.25,2.94c4.58,1.3 10.81,2.91 13.83,3.57c3.03,0.66 8.31,2.1 11.75,3.2c3.44,1.1 6.25,2.33 6.25,2.72c0,0.39 -3.04,0.55 -6.75,0.36c-6.75,-0.36 -6.75,-0.36 -4.26,1.64c1.37,1.09 5.2,2.74 8.5,3.66c3.31,0.92 7.25,2.4 8.76,3.28c1.51,0.89 2.75,2.16 2.75,2.82c0,0.72 -2.23,1.49 -5.49,1.9c-3.02,0.38 -5.27,1.04 -5,1.47c0.27,0.44 2.85,1.34 5.74,2.02c2.89,0.68 6.6,1.92 8.25,2.74c1.65,0.83 3.32,2.01 3.71,2.62c0.4,0.61 -0.05,1.41 -1,1.79c-0.94,0.37 -5.54,0.72 -10.21,0.76c-4.67,0.05 -9.51,0.36 -10.75,0.69c-1.24,0.33 -2.25,0.97 -2.25,1.41c0,0.44 1.69,1.35 3.75,2.01c2.06,0.67 4.12,1.43 4.58,1.69c0.46,0.27 -0.64,1.38 -2.45,2.48c-3.14,1.91 -3.2,2.07 -1.4,3.39c1.05,0.77 2.83,1.39 3.96,1.4c1.13,0 3.75,0.47 5.81,1.04c2.11,0.59 3.75,1.67 3.75,2.48c0,0.79 -1.12,1.71 -2.49,2.06c-1.37,0.34 -2.29,0.95 -2.05,1.35c0.25,0.4 2.97,1.29 6.06,1.98c3.16,0.71 5.86,1.91 6.19,2.77c0.32,0.83 -0.05,1.91 -0.81,2.4c-0.77,0.48 -3.56,0.89 -6.21,0.89c-2.64,0.01 -4.57,0.41 -4.27,0.89c0.29,0.47 3.17,1.38 6.39,2.01c3.22,0.64 6.68,1.76 7.7,2.5c1.74,1.28 1.7,1.44 -0.84,3.1c-1.47,0.96 -2.67,2.1 -2.67,2.54c0,0.43 1.42,1.28 3.17,1.89c1.74,0.61 10.17,1.81 18.75,2.67c8.57,0.86 17.22,1.99 19.21,2.5c2,0.51 4.19,1.6 4.86,2.41c1.02,1.22 0.77,1.65 -1.45,2.49c-1.47,0.56 -3.54,1.02 -4.61,1.02c-1.06,0 -1.93,0.43 -1.93,0.96c0,0.53 1.85,1.51 4.1,2.19c2.26,0.68 4.35,1.86 4.65,2.64c0.3,0.78 -0.09,1.81 -0.85,2.3c-1.02,0.64 -0.69,0.88 1.22,0.89c1.44,0.01 6.54,0.7 11.34,1.54c4.8,0.84 10.06,2.21 11.69,3.06c1.64,0.85 2.8,2.06 2.59,2.71c-0.22,0.64 -2.05,1.56 -4.07,2.04c-2.02,0.48 -3.67,1.47 -3.67,2.2c0,0.74 -1.01,1.65 -2.25,2.03c-1.24,0.38 -4.62,1.57 -7.51,2.64c-2.9,1.08 -5.04,2.31 -4.77,2.75c0.27,0.45 7.48,0.57 16.01,0.28c8.54,-0.28 15.52,-0.16 15.52,0.27c0,0.43 -0.79,1.38 -1.75,2.11c-1.5,1.14 -0.68,1.33 5.9,1.36c5.34,0.02 14.22,-1.35 29.43,-4.54c11.99,-2.52 23.93,-5.39 26.56,-6.39c2.62,-1 7.82,-3.6 11.56,-5.79c3.74,-2.18 11.75,-7.02 17.8,-10.74c6.05,-3.73 13.76,-8.97 17.14,-11.65c3.38,-2.67 8.66,-7.58 11.73,-10.9c3.17,-3.41 7.1,-9.16 9.07,-13.27c1.92,-3.98 4.39,-11.05 5.51,-15.71c1.11,-4.66 2.56,-13.2 3.22,-18.97c0.66,-5.78 1.22,-20.7 1.26,-33.15c0.07,-21.28 -0.05,-22.77 -1.93,-24.88c-1.1,-1.23 -4.02,-3.12 -6.5,-4.2c-2.48,-1.07 -11.12,-3.46 -19.21,-5.31c-8.08,-1.85 -18.43,-4.93 -23,-6.85c-4.56,-1.91 -9.28,-3.76 -10.49,-4.1c-1.76,-0.5 -3.72,0.78 -9.75,6.36c-6.36,5.91 -8.25,7.1 -12.15,7.69c-2.53,0.38 -6.98,0.44 -9.88,0.14c-2.89,-0.29 -7.01,-1.43 -9.14,-2.51c-3.68,-1.88 -4.24,-1.9 -10.88,-0.48c-5.7,1.22 -7.83,1.28 -11.44,0.3c-2.49,-0.67 -5.85,-2.61 -7.66,-4.42c-1.77,-1.77 -3.73,-5.11 -4.35,-7.43c-0.81,-2.98 -0.83,-5.28 -0.1,-7.94c0.57,-2.05 1.04,-4.07 1.04,-4.48c0.01,-0.41 -0.93,-0.75 -2.07,-0.75c-1.15,0 -5.09,1.3 -8.75,2.88c-3.67,1.59 -8.73,3.18 -11.26,3.54c-2.62,0.37 -5.84,0.18 -7.5,-0.45c-1.6,-0.6 -4.06,-2.35 -5.46,-3.87c-2.23,-2.44 -3.52,-2.86 -10.52,-3.44c-4.38,-0.37 -9.48,-1.1 -11.32,-1.63c-1.85,-0.53 -4.4,-1.64 -5.67,-2.48c-1.34,-0.88 -3.25,-4.07 -4.52,-7.55c-1.6,-4.38 -2.78,-6.15 -4.31,-6.45c-1.16,-0.23 -5.03,-0.93 -8.61,-1.57c-3.58,-0.64 -8.23,-2.13 -10.35,-3.31c-2.11,-1.18 -4.48,-3.37 -5.25,-4.86c-0.77,-1.49 -1.4,-5.01 -1.4,-7.81c0,-2.8 0.74,-6.54 1.64,-8.3c0.9,-1.76 2.92,-4.84 4.5,-6.84c1.57,-2.01 2.85,-4.48 2.85,-5.5c-0.01,-1.23 -2.04,-2.98 -6.04,-5.17c-3.32,-1.82 -8.46,-5.75 -11.44,-8.72c-3.77,-3.77 -5.61,-6.5 -6.08,-9c-0.47,-2.52 -0.13,-4.8 1.13,-7.6c0.99,-2.2 3.5,-5.76 5.58,-7.9c2.08,-2.14 5.71,-4.89 8.07,-6.11c3.16,-1.63 6.6,-2.34 13.04,-2.66c5.98,-0.3 8.75,-0.1 8.75,0.66c0,0.61 -1.01,1.34 -2.25,1.64c-1.24,0.29 -4.35,0.91 -6.91,1.37c-2.57,0.46 -6.64,1.99 -9.04,3.4c-2.41,1.41 -5,3.74 -5.77,5.17c-0.89,1.66 -1.04,2.95 -0.43,3.56c0.61,0.61 2.39,0.56 4.93,-0.14c2.55,-0.71 7.9,-0.86 14.97,-0.41c7.41,0.46 12.42,1.31 15.36,2.61c2.4,1.06 4.76,1.68 5.25,1.37c0.49,-0.3 0.89,-1.56 0.89,-2.8c0,-2.14 0.31,-2.24 6,-1.82c3.42,0.24 6,0.02 6,-0.52c0,-0.52 -1.7,-3.39 -3.78,-6.37c-2.6,-3.72 -4.87,-5.79 -7.25,-6.61c-1.91,-0.66 -5.38,-1.22 -7.72,-1.25c-2.34,-0.03 -4.25,-0.29 -4.25,-0.57c0,-0.29 0.54,-1.37 1.19,-2.42c0.94,-1.51 0.9,-2.26 -0.18,-3.56c-0.76,-0.91 -3.06,-2.52 -5.13,-3.57c-2.06,-1.05 -4.45,-2.92 -5.31,-4.15c-0.87,-1.23 -1.57,-3.87 -1.57,-5.86c0,-2.41 -0.7,-4.26 -2.1,-5.52c-1.16,-1.05 -2.73,-3.12 -3.5,-4.61c-0.77,-1.48 -1.4,-4.15 -1.4,-5.91c0,-1.77 1.14,-5.15 2.53,-7.53c1.48,-2.53 4.26,-5.31 6.75,-6.74c2.32,-1.33 5.72,-2.74 7.56,-3.12c1.84,-0.39 5.34,-0.4 7.77,-0.04c2.44,0.37 4.2,1.03 3.93,1.47c-0.27,0.45 -2.71,1.02 -5.41,1.28c-3.8,0.37 -5.96,1.33 -9.57,4.29c-3.28,2.69 -4.57,4.44 -4.36,5.91c0.25,1.74 2.71,2.88 14.72,6.84c7.93,2.61 14.66,4.5 14.95,4.21c0.3,-0.29 0.7,-1.75 0.9,-3.23c0.2,-1.48 0.48,-2.82 0.63,-2.97c0.15,-0.15 1.72,0.24 3.49,0.85c1.77,0.62 3.43,0.91 3.69,0.64c0.26,-0.26 0.02,-1.66 -0.53,-3.11c-0.65,-1.72 -0.66,-2.64 -0.01,-2.64c0.54,0 4.57,2.25 8.96,5c4.39,2.75 8.43,5 8.99,5c0.56,0 1.01,-0.43 1.01,-0.97c0,-0.53 -1.46,-2.63 -3.25,-4.67c-1.79,-2.04 -6.63,-5.92 -10.75,-8.61c-4.12,-2.7 -7.84,-5.51 -8.26,-6.25c-0.44,-0.79 -0.06,-2.04 0.93,-3.02c1.27,-1.28 2.64,-1.53 5.7,-1.04c4.02,0.65 4.02,0.65 2.11,-1.46c-1.46,-1.61 -2.97,-2.07 -6.44,-1.95c-2.5,0.08 -5.36,0.11 -6.36,0.06c-1.3,-0.06 -1.73,-0.74 -1.5,-2.34c0.25,-1.78 1.6,-2.67 6.45,-4.25c3.37,-1.1 6.83,-2.59 7.68,-3.31c0.85,-0.72 2.25,-3.39 3.12,-5.93c0.86,-2.54 1.57,-6.14 1.57,-8c0,-1.87 -0.49,-4.32 -1.1,-5.45c-0.6,-1.13 -1.1,-3.54 -1.1,-5.37c0,-1.82 1.02,-5.13 2.28,-7.36c1.25,-2.23 4.05,-5.28 6.22,-6.79c3.25,-2.25 5.36,-2.82 12.07,-3.26c8.13,-0.53 8.13,-0.53 8.63,-6.71c0.33,-4.09 1.21,-7.13 2.59,-9c1.15,-1.55 3.49,-3.77 5.2,-4.93c1.7,-1.17 4.95,-2.41 7.21,-2.77c2.26,-0.37 7.8,-0.21 12.31,0.35c4.5,0.56 11.64,1.24 15.85,1.52c7.65,0.5 7.65,0.5 8.34,-4.49c0.38,-2.74 1.67,-6.43 2.87,-8.22c1.2,-1.78 3.7,-4.26 5.55,-5.51c2.37,-1.59 4.83,-2.27 8.29,-2.27c2.7,0 6.9,0.5 9.33,1.12c2.44,0.61 4.23,1.45 3.97,1.86c-0.26,0.42 -2.8,1.07 -5.64,1.44c-2.85,0.38 -6.46,1.35 -8.03,2.16c-1.56,0.81 -2.84,1.92 -2.84,2.47c0,0.54 1.01,1.4 2.25,1.89c1.24,0.5 4.95,1.93 8.25,3.18c3.3,1.25 6.43,2.64 6.95,3.08c0.52,0.44 -1.05,0.83 -3.5,0.87c-2.45,0.04 -5.35,0.46 -6.45,0.94c-1.94,0.85 -1.94,0.89 0.25,1.55c1.24,0.37 2.25,1.07 2.25,1.56c0,0.48 -0.65,0.88 -1.44,0.88c-0.8,0 -2.11,0.95 -2.93,2.11c-0.81,1.17 -1.24,2.74 -0.95,3.5c0.41,1.06 -0.55,1.39 -4.02,1.39c-2.51,0 -6.95,-0.5 -9.86,-1.11c-2.92,-0.61 -7.7,-2.46 -10.63,-4.12c-4.6,-2.6 -5.98,-2.92 -10,-2.37c-2.57,0.36 -7.76,1.04 -11.54,1.52c-4.11,0.52 -7.94,1.66 -9.5,2.83c-1.45,1.08 -2.78,2.7 -2.95,3.61c-0.18,0.9 0.27,1.84 1,2.07c0.72,0.24 4.02,1.2 7.32,2.13c6,1.7 6,1.7 2.5,2.92c-3.5,1.23 -3.5,1.23 -0.37,1.93c1.73,0.38 4.99,2.29 7.26,4.23c2.27,1.94 3.87,3.94 3.56,4.44c-0.31,0.51 -2.58,0.92 -5.04,0.92c-3.05,0 -4.66,0.48 -5.05,1.5c-0.35,0.91 -1.86,1.5 -3.87,1.5c-1.82,0 -5.59,-1.19 -8.39,-2.64c-4.1,-2.13 -6.43,-2.63 -11.99,-2.6c-4.33,0.03 -8.23,0.68 -10.47,1.74c-1.96,0.93 -3.85,2.58 -4.19,3.67c-0.35,1.09 -0.45,2.17 -0.22,2.39c0.23,0.23 4.18,1.13 8.79,2c4.6,0.88 9.61,2.23 11.12,3.01c1.5,0.78 3.44,2.42 4.29,3.63c0.85,1.22 1.22,2.5 0.81,2.84c-0.41,0.35 -2.8,1.39 -5.33,2.31c-2.52,0.93 -6.68,3.02 -9.25,4.65c-2.56,1.62 -4.66,3.53 -4.66,4.23c0.01,0.7 2.14,2.49 4.75,3.99c4.75,2.72 4.75,2.72 -0.88,2.75c-3.82,0.02 -6.04,0.52 -6.91,1.57c-1.08,1.31 -0.75,2 2.13,4.48c1.88,1.62 5.63,3.62 8.34,4.46c2.71,0.84 5.63,1.52 6.47,1.52c0.85,0 8.08,1.62 16.07,3.61c7.99,1.98 14.84,3.89 15.21,4.25c0.38,0.35 0.15,1.36 -0.5,2.24c-0.65,0.87 -2.62,2.34 -4.38,3.25c-1.76,0.91 -4.49,1.65 -6.06,1.65c-1.57,0 -3.71,0.63 -4.76,1.39c-1.57,1.15 -1.68,1.66 -0.64,2.92c0.69,0.83 4.28,2.73 7.96,4.22c3.69,1.48 7.2,2.89 7.82,3.14c0.79,0.31 1,-1.72 0.7,-6.86c-0.43,-7.31 -0.43,-7.31 5.38,-1.09c3.42,3.67 7.44,6.87 9.8,7.8c2.2,0.86 5.02,2.08 6.26,2.7c1.24,0.62 3.4,3.54 4.79,6.48c1.63,3.44 4,6.41 6.64,8.32c2.26,1.64 4.99,2.98 6.07,2.98c1.71,0 1.88,-0.46 1.28,-3.62c-0.66,-3.56 -0.62,-3.62 2.14,-3.06c1.55,0.31 4.11,0.87 5.7,1.26c2.87,0.7 2.87,0.7 2.46,-5.75c-0.35,-5.48 -1.11,-7.64 -5.06,-14.34c-2.56,-4.34 -4.43,-8.25 -4.16,-8.69c0.28,-0.44 1.1,-0.8 1.83,-0.8c0.73,0 3.6,2.03 6.36,4.52c2.77,2.49 7.09,5.43 9.61,6.55c2.52,1.11 4.59,2.34 4.61,2.73c0.01,0.38 0.44,11.42 0.96,24.52c0.87,22.28 1.09,24.17 3.45,29.32c1.38,3.03 3.78,7.38 5.33,9.68c1.55,2.3 3.18,4.78 3.63,5.51c0.6,0.98 0.01,0.92 -2.24,-0.25c-1.68,-0.87 -5.06,-4.39 -7.52,-7.83c-2.45,-3.44 -4.93,-7.37 -5.51,-8.75c-0.58,-1.38 -1.98,-5.74 -3.12,-9.69c-2.06,-7.2 -2.06,-7.2 -6.29,-7.71c-2.32,-0.29 -11.34,-0.79 -20.05,-1.13c-15.83,-0.61 -15.83,-0.61 -15.5,1.69c0.24,1.68 1.87,3.04 6,5.01c4.08,1.96 7.11,4.47 10.85,9.02c3.18,3.86 6.79,7.04 9.32,8.2c2.26,1.03 6.6,1.97 9.64,2.07c3.03,0.11 6.25,0.52 7.14,0.92c0.89,0.41 3.1,2.85 4.91,5.43c1.8,2.58 4.67,6.17 6.36,7.98c2.09,2.23 4.86,3.77 8.6,4.77c3.03,0.82 8.77,2.46 12.75,3.64c3.99,1.18 7.53,1.87 7.87,1.52c0.35,-0.34 -0.23,-2.11 -1.29,-3.92c-1.06,-1.83 -4.34,-4.72 -7.37,-6.49c-3,-1.76 -6.51,-3.96 -7.81,-4.89c-1.31,-0.93 -3.67,-4.46 -5.25,-7.84c-1.58,-3.38 -3.38,-8.84 -3.99,-12.12c-0.61,-3.28 -0.9,-8.72 -0.63,-12.1c0.32,-4.11 1.4,-7.81 3.25,-11.22c1.53,-2.8 3.59,-5.83 4.58,-6.73c1.69,-1.53 1.84,-1.48 2.27,0.73c0.25,1.3 0.91,5.67 1.46,9.71c0.77,5.58 1.51,7.7 3.09,8.81c1.14,0.8 2.08,2.03 2.08,2.74c0,0.71 0.79,1.98 1.75,2.82c0.96,0.84 3.47,1.83 5.56,2.21c3.08,0.55 4.66,0.19 8.18,-1.87c2.4,-1.41 5.07,-2.56 5.94,-2.56c0.86,0 1.57,0.2 1.57,0.43c0,0.24 -1.46,2.79 -3.25,5.67c-3.16,5.1 -3.25,5.54 -3.23,16.32c0.02,7.11 0.48,11.9 1.3,13.36c0.71,1.26 3.13,3.62 5.38,5.25c2.26,1.63 4.71,2.97 5.45,2.97c1.06,0 1.32,-1.97 1.17,-8.8c-0.16,-7.72 0.11,-9.32 2.25,-12.99c1.33,-2.29 4.2,-6.66 6.36,-9.71c3.92,-5.53 3.92,-5.53 2.76,-20.76c-0.64,-8.38 -1.67,-17.04 -2.28,-19.24c-0.73,-2.65 -2.89,-5.75 -6.42,-9.18c-3.35,-3.28 -6.87,-5.65 -9.54,-6.45c-3.56,-1.07 -5.81,-1 -14.2,0.43c-9.63,1.64 -10.11,1.63 -14.26,-0.2c-2.93,-1.3 -5.93,-3.97 -9.4,-8.39c-2.8,-3.57 -6.62,-7.21 -8.48,-8.09c-2.35,-1.12 -8.87,-1.95 -21.25,-2.72c-13.95,-0.87 -19.32,-0.84 -24.55,0.14c-6.69,1.26 -6.69,1.26 -12.38,-3.64c-3.12,-2.7 -8.1,-7.19 -11.06,-10c-2.95,-2.8 -5.37,-5.68 -5.37,-6.4c0,-1.01 1.79,-1.16 8,-0.68c8,0.62 8,0.62 8,-1.96c0,-2.06 0.35,-2.43 1.75,-1.84c0.96,0.41 2.81,0.96 4.1,1.24c2.27,0.5 2.3,0.43 0.89,-2.38c-0.8,-1.58 -1.74,-4.39 -2.09,-6.24c-0.44,-2.31 -0.04,-4.74 1.3,-7.75c1.06,-2.42 2.39,-4.39 2.95,-4.39c0.55,0 1.27,1.69 1.59,3.75c0.31,2.06 1.7,6.05 3.09,8.86c1.39,2.81 3.87,6.4 5.52,7.98c2.44,2.34 3.16,2.61 3.88,1.44c0.49,-0.79 1.18,-3.59 1.55,-6.23c0.36,-2.64 1.03,-4.8 1.48,-4.8c0.45,0 1.28,2.14 1.83,4.75c0.55,2.61 1.31,6.4 1.68,8.42c0.37,2.01 1.64,4.53 2.83,5.6c1.18,1.06 3,2.23 4.04,2.6c1.72,0.61 1.83,0.28 1.28,-3.76c-0.61,-4.43 -0.61,-4.43 4.46,-1.02c2.79,1.87 6.15,3.41 7.47,3.41c1.32,0 2.4,-0.16 2.4,-0.36c0,-0.2 -1.35,-2.06 -3,-4.14c-1.65,-2.07 -3.49,-5.6 -4.09,-7.84c-0.66,-2.46 -0.82,-6.67 -0.39,-10.62c0.7,-6.54 0.7,-6.54 2.4,0.17c0.93,3.69 2.57,7.67 3.64,8.85c1.06,1.18 3.19,2.79 4.72,3.58c1.53,0.79 3.23,1.16 3.78,0.82c0.57,-0.35 0.72,-2.1 0.36,-4.04c-0.47,-2.48 -0.28,-3.42 0.66,-3.42c0.72,0 2.56,1.2 4.09,2.66c2.47,2.37 2.84,2.47 3.44,0.92c0.36,-0.95 0.19,-4.54 -0.38,-7.98c-0.66,-4.03 -2.1,-7.84 -4.04,-10.68c-1.65,-2.43 -3.26,-6.22 -3.57,-8.42c-0.3,-2.2 -0.14,-4.66 0.36,-5.47c0.78,-1.26 1.26,-1.16 3.22,0.63c1.26,1.16 3.74,2.83 5.5,3.72c1.76,0.89 3.9,1.62 4.75,1.62c0.85,0 1.55,-0.47 1.55,-1.04c0,-0.57 -0.91,-2.28 -2.03,-3.78c-1.11,-1.51 -2.29,-4.39 -2.62,-6.4c-0.43,-2.65 0.02,-4.91 1.64,-8.26c1.23,-2.54 2.7,-4.46 3.27,-4.27c0.58,0.2 1.57,2.41 2.2,4.92c0.64,2.51 2.66,6.46 4.49,8.76c2.69,3.4 3.45,5.43 3.99,10.66c0.58,5.56 1.11,6.87 3.86,9.38c1.76,1.6 3.2,3.89 3.2,5.08c0,1.19 -1.12,3.5 -2.5,5.13c-2.04,2.43 -2.5,4.04 -2.5,8.83c0,3.22 0.48,7.13 1.06,8.67c0.59,1.55 2.5,4.32 4.25,6.16c1.76,1.83 4.37,3.95 5.81,4.71c1.45,0.75 2.91,1.09 3.25,0.74c0.35,-0.34 0.63,-2.82 0.63,-5.51c0,-2.69 0.5,-6.89 1.12,-9.34c0.61,-2.44 1.46,-4.44 1.89,-4.44c0.42,0 1.08,1.67 1.46,3.72c0.39,2.04 1.35,4.96 2.14,6.5c0.79,1.53 1.8,2.78 2.23,2.78c0.43,0 1.56,-1.61 2.5,-3.58c0.93,-1.96 2.25,-3.39 2.93,-3.17c0.78,0.26 1.51,3.86 2.01,9.83c0.42,5.18 1.02,11.41 1.33,13.83c0.45,3.57 1.57,5.49 5.81,10c2.89,3.08 6.7,7.73 8.47,10.34c2.18,3.24 3.66,7.15 4.64,12.26c0.79,4.13 2.63,11.67 4.07,16.75c1.45,5.08 3,9.91 3.44,10.72c0.61,1.14 1.08,0.8 2.04,-1.5c0.68,-1.64 2.32,-5.46 3.63,-8.48c1.32,-3.03 3.59,-6.74 5.03,-8.25c1.45,-1.51 3.25,-2.75 3.99,-2.75c0.98,0 1.2,0.9 0.79,3.25c-0.31,1.79 -0.11,3.93 0.45,4.75c0.86,1.28 2.23,0.86 9.33,-2.82c4.57,-2.37 10.49,-6.17 13.14,-8.44c2.65,-2.26 5.44,-5.59 6.19,-7.4c0.95,-2.26 1.37,-7.76 1.37,-17.75c0,-8.04 0.42,-14.73 0.95,-15.06c0.52,-0.32 3.67,3.08 7,7.56c3.33,4.48 6.05,8.77 6.05,9.53c0,0.76 0.66,1.38 1.48,1.38c0.81,0 2.14,-1.02 2.96,-2.27c0.82,-1.25 1.79,-4.96 2.16,-8.25c0.37,-3.29 1.25,-7.1 1.95,-8.48c0.71,-1.38 2.96,-4.45 5.01,-6.83c2.78,-3.22 3.94,-3.99 4.57,-3c0.46,0.73 0.85,3.44 0.85,6.02c0.01,2.58 0.5,4.99 1.08,5.35c0.59,0.36 1.94,-0.13 3,-1.1c1.07,-0.96 3.05,-4.1 4.41,-6.96c2.08,-4.41 2.82,-5.15 4.76,-4.78c1.76,0.34 3.7,-0.93 8.28,-5.42c3.3,-3.22 8.38,-8.54 11.29,-11.82c5.31,-5.96 5.31,-5.96 4.87,0.04c-0.24,3.34 -1.62,8.82 -3.11,12.36c-1.47,3.5 -2.42,6.61 -2.11,6.93c0.32,0.31 2.21,-0.21 4.21,-1.17c2,-0.95 5.66,-3.39 8.13,-5.41c3.76,-3.08 4.38,-3.33 3.81,-1.53c-0.38,1.21 -0.21,2.44 0.4,2.82c0.59,0.36 2.9,0.35 5.13,-0.02c3.36,-0.57 5.37,-2.04 11.71,-8.6c6.01,-6.2 8.83,-8.33 13.1,-9.87c2.98,-1.09 5.67,-1.73 5.96,-1.44c0.29,0.29 -0.76,4.22 -2.34,8.73c-1.58,4.51 -3.93,10.04 -5.22,12.29c-1.28,2.25 -2.34,4.61 -2.34,5.25c0,0.65 1.48,1.16 3.37,1.16c2.4,0 5.5,-1.45 10.75,-5.01c4.06,-2.76 8.91,-6.13 10.78,-7.5c1.87,-1.37 3.67,-2.48 4,-2.47c0.33,0 1.27,0.43 2.09,0.95c1.3,0.83 1.26,1.34 -0.35,4.06c-1.01,1.71 -1.56,3.38 -1.23,3.71c0.33,0.34 4.32,-1.98 8.85,-5.14c4.53,-3.17 10.82,-7.6 13.98,-9.86c3.16,-2.25 6.04,-3.79 6.41,-3.42c0.37,0.37 0.12,1.91 -0.57,3.43c-0.68,1.51 -3.73,6.71 -6.78,11.55c-3.05,4.84 -5.24,9.1 -4.87,9.46c0.37,0.37 3.12,0.64 6.12,0.6c3,-0.05 5.45,0.25 5.45,0.66c0,0.4 -2.36,1.75 -5.25,3c-4.45,1.92 -4.95,2.38 -3.25,3.05c1.1,0.44 3.71,0.82 5.8,0.86c2.09,0.04 5.07,-0.59 6.63,-1.39c1.56,-0.81 3.98,-2.83 5.37,-4.49c1.47,-1.74 4.96,-3.92 8.22,-5.14c3.3,-1.24 7.5,-3.88 10.07,-6.35c2.43,-2.32 4.41,-5.14 4.41,-6.27c0,-1.12 -0.67,-3.65 -1.49,-5.61c-1.01,-2.42 -1.15,-3.78 -0.44,-4.22c0.58,-0.36 1.97,0.17 3.1,1.19c1.12,1.01 2.66,3.06 3.43,4.55c0.77,1.48 1.4,4.41 1.4,6.5c-0.01,2.09 -0.87,5.21 -1.92,6.93c-1.05,1.73 -3.41,4.26 -5.24,5.63c-1.84,1.37 -5.98,3.94 -9.2,5.71c-3.23,1.77 -7.79,4.69 -10.14,6.48c-3.26,2.49 -5.68,3.42 -10.14,3.91c-3.22,0.35 -12.88,0.21 -21.47,-0.32c-8.59,-0.52 -18.64,-1.44 -22.35,-2.03c-4.35,-0.7 -9.4,-2.49 -14.23,-5.05c-7.16,-3.79 -7.88,-3.96 -16.74,-3.96c-5.36,0 -11.32,0.63 -14.16,1.5c-2.7,0.82 -9.12,2.18 -14.26,3.01c-5.14,0.84 -10.32,2.02 -11.5,2.62c-1.18,0.6 -4.74,3.62 -7.9,6.7c-3.16,3.09 -5.75,6.24 -5.75,7.02c0,1.07 0.9,1.27 3.69,0.81c2.03,-0.33 5.88,-1.96 8.56,-3.63c2.69,-1.67 5.31,-3.03 5.84,-3.03c0.52,0 0.67,1.24 0.33,2.75c-0.34,1.51 -1.59,4.78 -2.77,7.25c-1.63,3.42 -2.99,4.79 -5.65,5.69c-1.93,0.66 -6.4,1.22 -9.93,1.25c-4.38,0.04 -7.81,0.72 -10.73,2.14c-2.36,1.14 -5.5,3.5 -6.98,5.25c-1.48,1.74 -3.95,5.94 -5.49,9.32c-1.54,3.38 -4.62,8.25 -6.85,10.82c-2.23,2.58 -4.72,5.98 -5.53,7.56c-0.9,1.72 -1.48,5.59 -1.48,9.67c0.01,3.74 0.29,7.81 0.62,9.05c0.33,1.24 1.14,2.25 1.8,2.25c0.66,0 3.57,-2.87 6.48,-6.39c2.9,-3.51 7,-9.26 9.1,-12.77c2.11,-3.51 4.81,-7.27 6.02,-8.36c2.19,-1.98 2.19,-1.98 1.83,7c-0.36,8.98 -0.36,8.98 3.64,9.69c2.2,0.39 7.43,0.74 11.62,0.77c5.38,0.04 8.92,-0.5 12,-1.83c2.41,-1.04 5.37,-2.19 6.58,-2.55c2.03,-0.61 2.15,-0.4 1.61,2.89c-0.53,3.28 -0.38,3.55 1.95,3.55c1.39,0 5.7,-1.35 9.58,-3c3.88,-1.65 7.53,-3 8.11,-3c0.58,0 1.05,0.37 1.05,0.82c0,0.45 -1.61,2.7 -3.57,4.99c-1.96,2.29 -3.25,4.67 -2.87,5.29c0.41,0.66 2.07,0.9 4.07,0.57c1.85,-0.3 3.37,-0.12 3.37,0.4c0,0.52 -0.79,1.6 -1.75,2.39c-0.96,0.8 -3.97,2.93 -6.68,4.74c-2.71,1.82 -5.76,4.44 -6.77,5.82c-1.02,1.39 -2.12,4.2 -2.46,6.25c-0.37,2.28 -0.2,3.73 0.42,3.73c0.57,0 5.87,-4.05 11.79,-9c5.93,-4.95 11.16,-9 11.64,-9c0.48,0 1.15,0.73 1.5,1.62c0.53,1.41 1.8,1.54 9.21,0.95c4.73,-0.38 9.63,-0.94 10.89,-1.25c1.47,-0.36 3.19,-2.32 4.79,-5.48c1.37,-2.7 4.13,-6.72 6.13,-8.94c2,-2.22 4.8,-4.62 6.21,-5.34c1.42,-0.72 3.59,-1.62 4.83,-2c1.83,-0.57 2.25,-0.31 2.25,1.37c0,1.14 0.57,2.07 1.28,2.07c0.7,0 2.39,-0.75 3.75,-1.66c1.36,-0.91 6.35,-5.41 11.09,-10c5.48,-5.3 9.42,-8.34 10.82,-8.34c2.19,0 2.19,0 0.08,3.75c-1.16,2.06 -5.01,7.8 -8.56,12.75c-3.54,4.95 -6.45,9.56 -6.45,10.25c-0.01,0.69 0.46,1.25 1.04,1.25c0.58,0 2.35,-0.67 3.95,-1.5c1.59,-0.82 4.92,-4.34 7.4,-7.8c2.47,-3.47 5.65,-6.92 7.06,-7.68c2.28,-1.22 2.71,-1.17 3.93,0.5c1.33,1.82 1.44,1.82 4.13,-0.08c1.52,-1.06 3.26,-2.2 3.87,-2.52c0.61,-0.33 3.36,-1.81 6.11,-3.29c2.75,-1.49 6.86,-3.65 9.14,-4.82c2.35,-1.19 4.89,-1.82 5.87,-1.45c1.59,0.62 1.6,0.82 0.09,2.9c-0.9,1.23 -1.9,2.82 -2.24,3.53c-0.33,0.71 -0.34,1.56 -0.02,1.88c0.32,0.32 4.31,0.02 8.87,-0.68c4.56,-0.7 9.41,-1.69 10.79,-2.2c1.38,-0.51 3.51,-1.87 4.75,-3.03c1.24,-1.16 2.25,-2.48 2.25,-2.93c0,-0.46 -0.9,-0.83 -2,-0.83c-1.1,0 -2,-0.39 -2,-0.86c0,-0.47 2.73,-2.32 6.07,-4.1c3.6,-1.91 6.86,-4.53 8,-6.39c1.06,-1.73 1.92,-3.72 1.93,-4.41c0,-0.7 -1.46,-2.16 -3.25,-3.25c-3.24,-1.98 -3.24,-1.98 -0.63,-1.99c1.43,0 3.76,0.91 5.17,2.02c1.41,1.1 3.09,3.6 3.73,5.53c0.89,2.72 0.88,4.73 -0.08,8.74c-1.03,4.34 -2.31,6.26 -7.59,11.45c-3.49,3.43 -6.35,6.61 -6.35,7.05c0,0.45 1.32,2.61 2.93,4.8c1.61,2.19 3.03,5.09 3.15,6.45c0.13,1.35 0.16,3.42 0.08,4.6c-0.09,1.17 -1.98,4.86 -4.21,8.2c-3.43,5.14 -5.13,6.61 -10.99,9.54c-3.83,1.92 -9.36,3.78 -12.34,4.15c-2.98,0.37 -6.79,0.37 -8.48,0c-2.1,-0.46 -4.19,-2.2 -6.61,-5.49c-1.94,-2.64 -3.53,-5.37 -3.53,-6.05c0,-0.92 1.27,-1.07 4.75,-0.58c2.61,0.36 7.92,0.92 11.79,1.24c7.04,0.59 7.04,0.59 13.41,-4.3c3.5,-2.69 7.27,-6.11 8.39,-7.6c1.77,-2.38 1.86,-3.01 0.7,-5.18c-0.73,-1.37 -2.89,-3.22 -4.79,-4.12c-2.76,-1.31 -5.03,-1.5 -11.37,-0.94c-7.39,0.65 -8.09,0.92 -10.67,4.05c-2.76,3.35 -2.76,3.35 -17.74,4.03c-14.97,0.69 -14.97,0.69 -20.05,5.45c-2.8,2.61 -7.3,5.88 -10,7.25c-2.71,1.37 -7.84,4.65 -11.41,7.27c-4.91,3.62 -8.05,5.11 -12.94,6.14c-5.84,1.22 -7.15,2 -13.52,7.98c-3.88,3.65 -8.09,7.75 -9.37,9.11c-1.31,1.4 -1.94,2.85 -1.44,3.35c0.47,0.47 7.08,0.57 14.68,0.2c13.81,-0.66 13.81,-0.66 18.44,-4.31c2.55,-2.01 6.43,-4.86 8.62,-6.34c2.19,-1.48 4.36,-2.69 4.81,-2.69c0.45,0 0.03,1.34 -0.93,2.97c-0.97,1.63 -1.55,3.14 -1.31,3.35c0.25,0.22 5.76,0.17 12.24,-0.09c11.79,-0.48 11.79,-0.48 18.17,-6.26c3.5,-3.18 7.36,-6.09 8.56,-6.48c1.22,-0.38 2.67,-0.2 3.29,0.42c0.82,0.82 -1.13,3.39 -7.35,9.67c-4.65,4.71 -9.21,8.97 -10.13,9.48c-0.92,0.51 -4.96,1.39 -8.98,1.96c-4.02,0.57 -7.74,1.47 -8.28,2.01c-0.63,0.63 -0.62,1.32 0.03,1.97c0.56,0.56 4.13,1.57 7.95,2.27c4.92,0.89 6.95,1.69 6.95,2.74c0,0.88 -1.65,1.97 -4,2.66c-2.2,0.65 -5.26,1.45 -6.79,1.78c-1.54,0.33 -2.52,1.05 -2.19,1.58c0.33,0.53 3.07,0.97 6.09,0.97c3.02,0 6.74,-0.65 8.27,-1.44c1.53,-0.79 4.7,-3.04 7.05,-5c2.34,-1.96 4.71,-3.56 5.26,-3.56c0.56,0 0.04,1.63 -1.13,3.63c-1.18,1.99 -1.94,3.83 -1.68,4.08c0.25,0.25 2.51,-0.45 5.02,-1.56c2.51,-1.11 6.08,-3.18 7.93,-4.59c1.85,-1.41 4.35,-2.56 5.55,-2.56c1.21,0 3.96,-0.9 6.12,-2c2.16,-1.1 4.16,-2 4.46,-2c0.3,0 0.54,0.9 0.54,2c0,1.1 0.64,2 1.43,2c0.78,0 2.34,-1.17 3.47,-2.6c1.12,-1.43 2.81,-4.33 3.75,-6.46c1.19,-2.71 2.47,-4 4.27,-4.35c1.42,-0.26 4.6,-0.79 7.08,-1.16c2.48,-0.37 7.09,-1.98 10.25,-3.57c4.23,-2.13 5.75,-3.44 5.75,-4.97c0,-1.14 -0.76,-3.37 -1.69,-4.94c-0.96,-1.64 -3.63,-3.69 -6.25,-4.82c-4.31,-1.86 -4.4,-1.97 -1.56,-2.03c1.65,-0.03 4.88,0.8 7.19,1.85c2.46,1.11 5.49,3.68 7.34,6.22c2.71,3.72 3.08,4.95 2.66,8.75c-0.39,3.55 -1.29,5.19 -4.59,8.33c-2.25,2.14 -4.1,4.23 -4.1,4.63c0,0.4 1.11,2.24 2.48,4.09c1.36,1.84 2.97,4.86 3.57,6.69c0.82,2.48 0.8,4.26 -0.08,6.93c-0.65,1.97 -2.55,5.14 -4.23,7.05c-1.68,1.91 -4.68,4.31 -6.67,5.32c-1.99,1.02 -6.36,2.39 -9.7,3.05c-3.34,0.65 -6.67,1.56 -7.39,2c-1.06,0.66 -0.98,1.88 0.46,6.44c1.12,3.56 1.53,6.88 1.12,9.06c-0.35,1.89 -1.83,4.85 -3.29,6.58c-1.45,1.73 -4.61,3.98 -7.01,5.01c-4.36,1.87 -4.36,1.87 -3.7,7.73c0.63,5.55 0.5,6.03 -2.44,9.39c-1.71,1.94 -4.49,4.1 -6.17,4.8c-1.84,0.76 -3.83,2.78 -5,5.08c-1.56,3.06 -2.8,4.05 -6.2,4.97c-2.49,0.68 -6.52,0.88 -9.75,0.49c-3.02,-0.36 -6.62,-0.75 -8,-0.86c-2.42,-0.19 -2.51,0.02 -2.8,6.8c-0.26,5.96 -0.69,7.4 -2.92,9.73c-1.44,1.5 -4.68,3.53 -7.2,4.5c-3.34,1.29 -7.41,1.77 -15.08,1.76c-9.8,-0.01 -10.94,-0.23 -17.1,-3.25c-3.63,-1.78 -7.66,-3.24 -8.96,-3.24c-1.36,0 -3.26,1.12 -4.47,2.64c-1.85,2.33 -2.99,2.69 -9.62,3.12c-5.31,0.34 -9.24,-0.02 -13.43,-1.21c-4.98,-1.43 -6.84,-2.67 -11.69,-7.8c-5.76,-6.11 -5.76,-6.11 -11.08,-4.43c-2.93,0.93 -6.89,1.68 -8.79,1.68c-1.91,0 -5.8,-1.16 -8.66,-2.59c-2.85,-1.42 -6.06,-3.81 -7.13,-5.31c-1.06,-1.5 -2.24,-3.94 -2.61,-5.42c-0.38,-1.48 -0.38,-4.27 -0.02,-6.21c0.36,-1.93 2.1,-5.15 3.86,-7.16c1.76,-2 5.57,-4.69 8.48,-5.97c2.9,-1.29 6.11,-2.34 7.13,-2.34c1.01,0 2.47,0.95 3.24,2.1c1.23,1.85 3.12,2.27 15.37,3.46c7.69,0.75 14.37,1.38 14.85,1.4c0.47,0.02 3.53,2.74 6.79,6.04c3.26,3.3 6.41,6 7,6c0.62,0 0.85,-1.14 0.55,-2.75c-0.29,-1.51 -0.84,-3.74 -1.22,-4.95c-0.68,-2.16 -0.61,-2.15 4.34,0.49c2.76,1.48 5.36,2.35 5.76,1.95c0.41,-0.4 0.21,-1.88 -0.43,-3.28c-0.64,-1.41 -1.16,-3.66 -1.16,-5.01c0,-1.35 0.46,-2.45 1.03,-2.45c0.57,0 3.16,1.07 5.75,2.39c3.6,1.82 6.62,2.44 12.72,2.63c4.4,0.14 8.61,0.19 9.36,0.11c0.88,-0.08 1.11,-0.75 0.65,-1.88c-0.39,-0.96 -0.93,-2.31 -1.21,-3c-0.38,-0.91 0.98,-1.25 4.99,-1.25c3.87,0 5.66,-0.43 6.05,-1.44c0.3,-0.8 0.15,-2.86 -0.35,-4.6c-0.5,-1.73 -1.44,-3.8 -2.09,-4.58c-0.65,-0.79 -0.95,-1.67 -0.66,-1.96c0.29,-0.28 4.29,0.41 8.89,1.55c4.61,1.14 9.41,2.52 10.68,3.06c1.26,0.54 2.03,1.43 1.69,1.97c-0.34,0.55 -2.18,1 -4.09,1c-2.24,0 -3.69,0.56 -4.08,1.58c-0.33,0.87 0.15,2.33 1.07,3.25c1.38,1.37 3.75,1.67 13.39,1.64c7.51,-0.01 12.52,-0.47 13.96,-1.28c1.24,-0.69 2.25,-1.93 2.25,-2.76c0,-0.82 -0.67,-1.75 -1.5,-2.07c-0.83,-0.31 -1.5,-1 -1.5,-1.51c0,-0.52 1.67,-0.8 3.71,-0.64c2.85,0.22 3.8,-0.11 4.07,-1.41c0.19,-0.95 -1.44,-3.65 -3.72,-6.11c-2.23,-2.43 -4.06,-4.7 -4.06,-5.05c0,-0.35 1.91,-0.64 4.25,-0.65c2.34,0 6.05,-0.49 8.25,-1.09c2.2,-0.6 5.46,-2.2 7.25,-3.55c1.79,-1.35 3.25,-3.26 3.25,-4.25c0,-0.98 -0.8,-2.52 -1.79,-3.41c-0.98,-0.89 -3.46,-2.31 -5.5,-3.17c-2.05,-0.85 -6.31,-1.82 -9.47,-2.15c-4.25,-0.45 -8.04,-0.02 -14.49,1.62c-4.8,1.23 -9.79,1.97 -11.07,1.64c-1.29,-0.32 -5.31,-2.77 -8.94,-5.45c-6.59,-4.87 -6.59,-4.87 -18.14,-5.49c-7.3,-0.39 -12.64,-1.18 -14.51,-2.14c-1.73,-0.9 -4.11,-3.7 -5.77,-6.79c-2.82,-5.26 -2.82,-5.26 -26,-5.09c-23.19,0.16 -23.19,0.16 -29,4.07c-3.2,2.14 -8.58,5.55 -11.94,7.58c-3.37,2.02 -6.7,4.36 -7.4,5.2c-0.69,0.84 -0.97,1.83 -0.6,2.19c0.37,0.37 11.34,0.55 24.39,0.4c17.76,-0.2 24.11,-0.6 25.23,-1.57c0.83,-0.72 3.3,-2.21 5.5,-3.3c2.2,-1.1 5.9,-2.32 8.23,-2.7c2.46,-0.41 5.65,-0.24 7.63,0.41c1.87,0.62 4.2,2.01 5.18,3.09c0.98,1.09 1.6,2.14 1.37,2.33c-0.23,0.2 -3.12,-0.09 -6.42,-0.65c-5.3,-0.9 -6.58,-0.77 -10.77,1.08c-2.61,1.15 -5.02,2.81 -5.35,3.69c-0.34,0.87 0.15,2.43 1.09,3.47c0.94,1.03 4.8,3.51 8.59,5.49c3.78,1.99 7.6,4.35 8.49,5.23c1.3,1.3 1.36,1.77 0.28,2.45c-0.72,0.46 -3.24,0.85 -5.59,0.85c-2.36,0.01 -6.84,0.92 -9.97,2.02c-3.13,1.1 -8.24,2 -11.35,2c-5.4,0 -5.83,-0.2 -9.53,-4.3c-2.14,-2.37 -5.11,-5.74 -6.62,-7.48c-1.5,-1.75 -3.87,-3.46 -5.25,-3.81c-1.38,-0.34 -5.72,0.1 -9.63,0.98c-4.22,0.95 -11.64,1.61 -18.19,1.61c-9.13,0 -11.8,0.36 -15.33,2.07c-2.35,1.13 -6.65,4.66 -9.56,7.83c-2.92,3.17 -7.14,8.88 -9.39,12.68c-2.24,3.81 -5.26,9.86 -6.7,13.46c-2.35,5.89 -2.67,8.35 -3.26,24.5c-0.36,9.88 -0.17,27.64 0.42,39.46c0.58,11.82 1.75,25.1 2.58,29.5c0.84,4.41 3.09,11.18 5.01,15.09c1.92,3.91 5.42,9.69 7.76,12.86c2.35,3.17 7.17,7.93 10.71,10.58c4.63,3.46 10.21,6.24 19.86,9.86c7.38,2.77 15.5,6.26 18.04,7.75c2.54,1.49 4.11,2.88 3.48,3.09c-0.63,0.21 -8.49,-1.49 -17.47,-3.78c-8.99,-2.29 -19.61,-5.67 -23.6,-7.5c-4.65,-2.13 -9.4,-5.37 -13.21,-9c-4.18,-3.99 -7.28,-8.25 -10.45,-14.41c-2.48,-4.8 -5.92,-12.92 -7.63,-18.03c-2.45,-7.31 -3.32,-12.11 -4.05,-22.41c-0.51,-7.2 -1.43,-25.25 -2.04,-40.1c-0.61,-14.85 -1.16,-30.25 -1.22,-34.21c-0.1,-6.71 0.21,-7.83 4.45,-16c2.5,-4.84 7.32,-12.68 10.71,-17.44c3.39,-4.76 8.98,-11.17 12.43,-14.25c3.45,-3.07 5.59,-5.59 4.77,-5.59c-0.82,-0.01 -4.38,1.35 -7.89,3.01c-3.82,1.81 -7.16,2.78 -8.32,2.41c-1.2,-0.38 -3.35,0.34 -5.71,1.9c-2.08,1.37 -5.83,4.9 -8.33,7.83c-2.5,2.94 -6.85,9.04 -9.65,13.57c-2.81,4.53 -5.11,8.81 -5.11,9.5c-0.01,0.7 -1.59,-1.43 -3.52,-4.73c-1.92,-3.3 -4.36,-7.8 -5.42,-10c-1.05,-2.2 -2.61,-8.05 -3.47,-13c-0.85,-4.95 -2.03,-13.63 -2.61,-19.28c-0.58,-5.65 -0.77,-10.74 -0.42,-11.3c0.41,-0.67 1.12,-0.61 2.07,0.18c1.13,0.94 1.94,0.93 3.66,-0.01c1.22,-0.67 4.75,-4.68 7.84,-8.9c3.09,-4.23 6.19,-8.79 6.89,-10.14c0.83,-1.59 1.58,-10.27 2.15,-24.89c0.49,-12.34 0.76,-22.57 0.6,-22.73c-0.15,-0.16 -2.75,0.55 -5.77,1.57c-3.72,1.25 -6.58,3.08 -8.86,5.67c-1.85,2.11 -5.79,6.8 -8.75,10.44c-4.16,5.12 -5.6,7.8 -6.38,11.89c-0.55,2.9 -1,14.32 -0.99,25.39c0,12.03 0.5,22.52 1.24,26.11c0.92,4.49 1.23,27.77 1.24,92.5c0.01,86.5 0.01,86.5 3.65,100.12c2,7.49 5.42,17.39 7.59,22c2.17,4.61 6.42,11.98 9.44,16.38c3.02,4.4 7.42,11.71 9.77,16.25c2.36,4.54 4.74,8.25 5.3,8.25c0.61,0 0.75,-1.28 0.35,-3.25c-0.37,-1.79 -0.9,-5.27 -1.19,-7.75c-0.52,-4.5 -0.52,-4.5 3.02,-0.5c1.94,2.2 5.46,6.43 7.81,9.41c2.35,2.97 5.5,6.31 7,7.43c1.51,1.11 2.98,1.79 3.27,1.5c0.29,-0.3 -0.65,-3.11 -2.09,-6.25c-1.44,-3.15 -2.38,-5.95 -2.1,-6.24c0.29,-0.28 1.46,-0.01 2.61,0.61c1.15,0.61 4.62,4.47 7.71,8.58c3.08,4.1 6.23,7.46 6.99,7.46c0.76,0 1.38,-0.37 1.38,-0.82c0,-0.45 -1.78,-4.98 -3.95,-10.06c-3.95,-9.25 -3.95,-9.25 3.25,-5.31c3.96,2.17 10.35,5.19 14.2,6.72c3.85,1.53 9.37,4.1 12.27,5.73c2.9,1.63 5.73,3.8 6.27,4.82c0.55,1.03 4.12,4.36 7.93,7.39c3.81,3.04 7.37,5.53 7.91,5.53c0.54,0 1.14,-1.24 1.33,-2.75c0.32,-2.66 0.59,-2.49 8.06,5.06c4.25,4.3 7.73,7.45 7.72,7c-0.01,-0.44 -1.58,-2.79 -3.5,-5.2c-1.92,-2.42 -3.49,-4.58 -3.49,-4.81c0,-0.23 1.91,0.72 4.25,2.11c2.34,1.38 7.99,5.73 12.57,9.65c4.58,3.92 8.51,6.94 8.74,6.71c0.23,-0.23 -3.34,-5.11 -7.93,-10.85c-4.6,-5.74 -11.68,-13.39 -15.74,-17c-4.07,-3.61 -9.79,-8.44 -12.73,-10.74c-2.94,-2.3 -5.98,-4.18 -6.76,-4.18c-1.07,0 -0.85,0.93 0.89,3.75c1.28,2.06 3.59,6 5.15,8.75c2.83,5 2.83,5 -1.06,1.37c-2.13,-2 -6.07,-5.27 -8.74,-7.28c-2.68,-2 -13.48,-7.89 -24,-13.07c-10.53,-5.18 -22.13,-11.7 -25.8,-14.48c-3.66,-2.78 -10.18,-9.33 -14.5,-14.55c-4.31,-5.23 -9.5,-12.24 -11.53,-15.58c-2.03,-3.35 -5.12,-9.51 -6.87,-13.7c-1.74,-4.19 -4.22,-11.92 -5.5,-17.17c-1.28,-5.25 -2.88,-13.36 -3.55,-18.04c-0.75,-5.15 -1.26,-20.78 -1.31,-39.7c-0.06,-23.71 0.22,-31.5 1.17,-32.45c1,-1 1.25,-0.5 1.25,2.52c0,2.07 0.42,4.54 0.93,5.49c0.51,0.96 1.43,6.44 2.04,12.19c0.62,5.75 1.8,14.44 2.63,19.31c0.82,4.88 2.1,9.83 2.84,11c0.73,1.18 1.9,5.24 2.59,9.03c0.69,3.79 2.03,7.67 2.99,8.63c0.95,0.95 3.18,6.08 4.95,11.39c1.77,5.31 4.23,10.88 5.46,12.38c1.24,1.49 3.84,5.21 5.77,8.26c1.94,3.06 5.36,7.13 7.6,9.04c2.24,1.92 7.36,5.13 11.38,7.15c4.03,2.01 12.5,5.31 18.82,7.34c6.32,2.03 14.09,4.98 17.25,6.57c3.16,1.58 8.85,3.53 12.64,4.33c3.79,0.79 16.85,5.58 29.04,10.62c12.18,5.05 26.07,11.42 30.86,14.15c4.79,2.73 11.11,6.75 14.04,8.95c2.93,2.19 5.08,4.22 4.79,4.51c-0.29,0.3 -4.71,-1.15 -9.83,-3.21c-5.11,-2.06 -13.12,-5.07 -17.79,-6.69c-5.14,-1.78 -12.06,-3.28 -17.5,-3.78c-5.44,-0.5 -12.56,-2.04 -18,-3.89c-4.95,-1.68 -12.82,-4.42 -17.5,-6.08c-4.68,-1.66 -9.6,-3.03 -10.94,-3.04c-2.33,-0.02 -2.29,0.1 1,2.56c1.89,1.42 7.04,4.41 11.44,6.63c4.4,2.23 10.93,5.96 14.5,8.29c3.58,2.32 8.84,5.41 11.69,6.85c2.86,1.44 8.55,3.96 12.66,5.59c4.1,1.63 13.24,5.51 20.3,8.63c7.07,3.12 19.23,9.44 27.04,14.04c7.8,4.61 14.46,8.83 14.81,9.38c0.34,0.56 0.03,1 -0.69,0.99c-0.72,0 -7.61,-1.13 -15.31,-2.49c-7.7,-1.36 -14.56,-2.48 -15.25,-2.48c-0.69,-0.01 -1.25,0.36 -1.25,0.81c0,0.45 4.29,2.76 9.53,5.14c5.24,2.38 9.81,4.78 10.15,5.34c0.35,0.55 0.2,0.74 -0.32,0.42c-0.52,-0.32 -3.76,-1.23 -7.2,-2.03c-3.46,-0.8 -6.1,-1.02 -5.93,-0.49c0.18,0.52 5.71,3.79 12.3,7.27c6.58,3.47 12.38,6.36 12.88,6.42zm-268.7,-3.89c0.66,0 2.16,-3.21 3.33,-7.14c1.17,-3.93 3.91,-14.09 6.08,-22.59c2.18,-8.5 5.51,-19.58 7.41,-24.61c1.9,-5.04 3.46,-9.8 3.46,-10.58c0.01,-0.98 -0.81,-0.66 -2.6,1c-1.44,1.33 -4.37,5 -6.52,8.15c-2.15,3.15 -4.8,6.2 -5.89,6.78c-1.09,0.58 -1.98,0.68 -1.98,0.21c0,-0.47 0.71,-3.23 1.57,-6.14c0.86,-2.9 1.37,-5.48 1.12,-5.72c-0.24,-0.24 -2.21,1.72 -4.39,4.35c-2.17,2.63 -8.37,10.79 -13.77,18.12c-5.41,7.34 -11.8,17.18 -14.22,21.88c-2.42,4.7 -4.15,8.79 -3.84,9.09c0.3,0.31 1.93,-0.76 3.61,-2.37c3.06,-2.93 3.06,-2.93 1.99,-0.11c-0.59,1.54 -1.05,3.34 -1.03,4c0.02,0.65 1.32,-0.32 2.89,-2.15c1.57,-1.83 3.02,-2.82 3.23,-2.2c0.2,0.62 2.32,-1.63 4.7,-5c2.37,-3.37 4.48,-5.97 4.67,-5.78c0.19,0.2 -0.98,4.09 -2.59,8.65c-1.62,4.57 -2.93,8.83 -2.92,9.48c0.01,0.65 1.42,-1.3 3.14,-4.32c1.71,-3.02 4.18,-7.19 5.49,-9.25c1.31,-2.06 2.85,-3.75 3.44,-3.75c0.7,0 0.82,1.95 0.38,5.75c-0.64,5.42 -0.59,5.64 0.95,3.75c1.55,-1.89 1.62,-1.67 1.36,4.25c-0.2,4.37 0.08,6.25 0.93,6.25zm31.49,-16.4c0.45,-0.8 3.29,-8.9 6.31,-17.99c3.02,-9.1 5.49,-16.81 5.49,-17.14c0,-0.32 -0.46,-0.3 -1.02,0.04c-0.56,0.35 -2.08,2.74 -3.38,5.31c-1.29,2.57 -3.53,7.96 -4.97,11.97c-1.44,4.01 -3,9.74 -3.47,12.73c-0.47,3 -0.61,5.7 -0.31,5.99c0.3,0.3 0.91,-0.11 1.35,-0.91zm-103.4,-16.64c2.2,-1.9 9.78,-8.33 16.85,-14.29c7.07,-5.96 15.49,-12.6 18.71,-14.75c3.23,-2.16 6.49,-3.92 7.25,-3.92c0.77,0 1.37,0.56 1.35,1.25c-0.02,0.69 -2.5,4.63 -5.52,8.75c-3.02,4.12 -7.2,9.98 -9.29,13c-2.09,3.02 -4.12,6.35 -4.5,7.39c-0.6,1.62 -0.47,1.71 0.85,0.61c0.86,-0.71 4.79,-5.39 8.75,-10.39c3.96,-5.01 14.35,-16.53 23.08,-25.61c8.74,-9.08 18.61,-19.88 21.95,-24c3.33,-4.12 7.99,-11.57 10.36,-16.55c2.36,-4.97 4.94,-11.95 5.73,-15.5c0.79,-3.55 1.72,-12.19 2.08,-19.2c0.39,-7.74 0.28,-12.75 -0.29,-12.75c-0.52,0 -1.89,3.52 -3.05,7.82c-1.16,4.3 -2.11,9.97 -2.11,12.59c0,2.63 -0.73,7.33 -1.63,10.44c-0.89,3.11 -2.52,7.45 -3.62,9.65c-1.11,2.2 -4.09,6.87 -6.63,10.38c-3.02,4.17 -9.85,10.75 -19.72,19c-11.62,9.71 -17.49,13.83 -25.43,17.86c-5.67,2.88 -10.53,5.04 -10.78,4.78c-0.25,-0.25 0.25,-1.55 1.13,-2.88c0.87,-1.33 4.13,-5.17 7.24,-8.53c3.11,-3.36 5.12,-6.11 4.47,-6.11c-0.65,0 -3.96,2.13 -7.36,4.74c-3.39,2.61 -11.29,9.7 -17.55,15.75c-6.53,6.32 -14.35,15.18 -18.37,20.8c-3.85,5.39 -6.73,10.06 -6.4,10.39c0.32,0.33 3.75,-1.96 7.62,-5.09c3.87,-3.12 7.03,-5.31 7.03,-4.86c0,0.46 -0.69,1.82 -1.54,3.03c-0.85,1.21 -2.25,3.88 -3.11,5.93c-1.56,3.74 -1.56,3.74 2.45,0.27zm-74.23,-9.96c0.45,0 4.44,-2.34 8.87,-5.21c4.43,-2.86 9.7,-6.46 11.7,-8c2.01,-1.53 4.01,-2.79 4.46,-2.79c0.44,0 -0.81,1.69 -2.79,3.75c-1.98,2.06 -3.91,4.82 -4.31,6.13c-0.56,1.84 -0.41,2.19 0.64,1.55c0.75,-0.45 6.08,-4.91 11.86,-9.91c5.78,-5 12.53,-10.47 15,-12.16c2.47,-1.69 9.68,-6.02 16,-9.62c7.18,-4.08 16.57,-8.32 25,-11.27c7.43,-2.59 15.64,-5.62 18.25,-6.72c2.61,-1.1 4.75,-2.4 4.75,-2.88c0,-0.49 -1.8,-0.61 -4,-0.25c-2.54,0.4 -4,0.25 -4,-0.42c0,-0.57 3.04,-3.03 6.75,-5.46c3.71,-2.43 8.23,-5 10.05,-5.72c1.81,-0.71 6.89,-5.18 11.3,-9.91c4.4,-4.74 11.06,-13.14 14.79,-18.68c5.78,-8.56 7.13,-11.41 8.99,-19c1.2,-4.91 2.9,-14.11 3.77,-20.43c0.88,-6.32 1.8,-20.4 2.06,-31.29c0.42,-17.5 0.21,-21.17 -1.76,-31.75c-1.22,-6.58 -2.57,-11.96 -2.99,-11.96c-0.42,0 -1.02,5.06 -1.34,11.25c-0.32,6.19 -0.83,18 -1.14,26.25c-0.31,8.25 -1.23,21.75 -2.04,30c-0.81,8.25 -2.1,17.98 -2.87,21.62c-0.78,3.64 -2.75,9.27 -4.4,12.5c-1.64,3.23 -5.68,9.49 -8.97,13.9c-3.29,4.4 -9.57,11.43 -13.94,15.61c-4.39,4.19 -11.06,9.3 -14.86,11.39c-3.8,2.08 -9.61,5.45 -12.91,7.5c-3.31,2.04 -8.94,5.19 -12.5,6.99c-3.57,1.81 -14.93,6.54 -25.24,10.53c-13.43,5.19 -23.65,10.01 -36,16.97c-9.49,5.35 -19.39,11.28 -22,13.19c-2.61,1.91 -4.75,3.92 -4.75,4.46c0,0.59 1.24,0.73 3.02,0.34c1.66,-0.37 7.09,-2.43 12.05,-4.58c4.97,-2.16 9.15,-3.92 9.31,-3.92c0.15,0 -2.91,3.27 -6.8,7.26c-3.9,4 -7.7,8.05 -8.45,9c-0.76,0.96 -1.01,1.74 -0.56,1.74zm-38.86,-19.02c0.67,0.01 3.82,-0.93 7,-2.09c3.19,-1.15 19.29,-8.78 35.79,-16.94c24.51,-12.12 33.37,-15.96 48.43,-20.97c10.14,-3.37 20.49,-7.17 23,-8.45c2.51,-1.27 5.47,-3.31 6.57,-4.53c1.1,-1.22 6.95,-5.95 13,-10.53c6.05,-4.57 12.35,-9.5 14,-10.96c1.65,-1.46 2.32,-2.32 1.5,-1.92c-0.82,0.41 -3.75,2.17 -6.5,3.93c-2.75,1.76 -9.95,6.13 -16,9.72c-6.05,3.59 -13.44,7.75 -16.43,9.25c-2.98,1.5 -7.26,3.38 -9.5,4.19c-2.24,0.81 -9.07,2.51 -15.18,3.79c-6.1,1.29 -13.75,3.41 -17,4.73c-3.24,1.31 -10.61,5.36 -16.39,8.99c-5.78,3.64 -16.05,9.6 -22.83,13.26c-6.78,3.66 -16.46,9.32 -21.5,12.58c-5.04,3.26 -8.62,5.94 -7.96,5.95zm242.06,-14.98c0.15,-4.67 -0.36,-16.28 -1.13,-25.79c-0.77,-9.52 -1.68,-17.58 -2.02,-17.92c-0.34,-0.34 -0.88,-0.36 -1.21,-0.04c-0.32,0.33 -0.98,2.31 -1.47,4.42c-0.49,2.11 -0.89,8.56 -0.89,14.33c0,5.77 0.46,12.52 1.02,15c0.56,2.48 2.02,7.65 3.23,11.5c2.2,7 2.2,7 2.47,-1.5zm148.73,-4.15c-0.55,0.01 -6.85,-2.37 -14,-5.3c-7.15,-2.93 -15.14,-6.54 -17.75,-8.02c-2.61,-1.49 -4.75,-2.88 -4.75,-3.11c0,-0.22 2.81,0.66 6.25,1.96c3.44,1.3 11.87,5.08 18.75,8.4c6.88,3.32 12.05,6.05 11.5,6.07zm-178.41,-118.85c0.46,-3.02 0.86,-15.85 0.87,-28.5c0.02,-12.65 -0.36,-24.8 -0.85,-27c-0.57,-2.6 -0.88,7.38 -0.87,28.5c0.01,21.3 0.3,30.6 0.85,27zm227.04,-26c1.5,0 1.93,-0.56 1.69,-2.22c-0.18,-1.21 -1.89,-3.27 -3.82,-4.56c-2.38,-1.6 -4.3,-2.17 -6,-1.77c-1.37,0.32 -5.09,0.86 -8.25,1.2c-3.16,0.35 -5.75,0.87 -5.75,1.16c0,0.29 0.74,1.36 1.65,2.36c1.34,1.47 3.17,1.83 9.45,1.83c4.28,0 8.06,0.45 8.4,1c0.34,0.55 1.52,1 2.63,1zm-71.05,-11c0.87,0 1.87,-0.28 2.21,-0.63c0.35,-0.34 -0.03,-1.91 -0.85,-3.48c-0.81,-1.57 -2.85,-3.57 -4.52,-4.43c-1.68,-0.87 -3.74,-1.44 -4.58,-1.27c-1.15,0.23 -0.58,1.49 2.31,5.06c2.12,2.61 4.56,4.74 5.43,4.75zm-281.04,-45c0.61,0 3.06,-1.14 5.44,-2.54c2.39,-1.4 4.6,-3.22 4.91,-4.04c0.33,-0.86 -0.11,-1.76 -1.04,-2.12c-0.89,-0.34 -3.62,0.47 -6.06,1.79c-2.45,1.33 -4.68,2.77 -4.96,3.21c-0.28,0.44 -0.26,1.45 0.05,2.25c0.31,0.8 1.05,1.45 1.66,1.45zm293.28,-0.08c4.08,0.07 4.77,-0.19 4.49,-1.67c-0.18,-0.96 -2.58,-2.98 -5.32,-4.48c-2.75,-1.5 -5.98,-2.73 -7.19,-2.75c-1.21,-0.01 -3.37,0.51 -4.79,1.16c-1.42,0.65 -2.46,1.85 -2.3,2.66c0.16,0.82 2.54,2.28 5.29,3.25c2.75,0.96 7.17,1.79 9.82,1.83zm-191.07,-8.02c2.06,0.06 3.75,-0.15 3.75,-0.45c0,-0.3 -0.63,-1.77 -1.4,-3.25c-0.77,-1.49 -2.34,-3.56 -3.5,-4.61c-1.16,-1.05 -8.29,-5.89 -15.85,-10.75c-7.56,-4.86 -15.21,-9.12 -17.01,-9.45c-1.8,-0.34 -5.28,-0.11 -7.74,0.51c-2.45,0.61 -8.52,1.41 -13.48,1.76c-6.67,0.47 -9.02,1 -9.02,2.01c0,0.76 1.89,3.42 4.19,5.92c2.31,2.5 6.02,5.61 8.25,6.9c2.23,1.29 6.54,3.06 9.56,3.92c3.02,0.86 12.93,2.88 22,4.49c9.07,1.6 18.19,2.95 20.25,3zm-130.04,-2.2c2.18,-0.29 4.19,-0.76 4.47,-1.05c0.29,-0.28 0.22,-1 -0.14,-1.58c-0.36,-0.59 -2.4,-1.07 -4.54,-1.07c-2.14,0 -4.16,0.45 -4.5,1c-0.34,0.55 -0.31,1.5 0.07,2.11c0.42,0.68 2.26,0.91 4.64,0.59zm209.88,-0.7c0.59,0 4.08,-2.64 7.75,-5.86c3.66,-3.23 8.53,-7.2 10.82,-8.83c2.28,-1.63 8.36,-4.71 13.5,-6.85c7.14,-2.98 10.54,-5.09 14.44,-8.96c2.8,-2.79 7.2,-8.65 9.77,-13.03c2.57,-4.39 5.65,-11.01 6.85,-14.72c1.55,-4.83 1.87,-7.06 1.1,-7.83c-0.77,-0.77 -4.54,-0.49 -13.2,0.98c-6.66,1.13 -13.83,2.93 -15.93,4.01c-2.11,1.07 -6.6,4.92 -10,8.55c-3.4,3.63 -8.82,10.53 -12.05,15.33c-3.23,4.8 -7.22,11.43 -8.88,14.72c-1.65,3.29 -3.52,8.37 -4.13,11.29c-0.62,2.91 -1.13,6.63 -1.13,8.25c0,1.62 0.49,2.95 1.09,2.95zm-70.84,-10.01c0.41,0.01 0.75,-1.49 0.75,-3.32c0,-2.08 -1.22,-5.17 -3.25,-8.24c-1.79,-2.7 -6.03,-7.87 -9.44,-11.48c-5.56,-5.9 -7.02,-6.85 -14.5,-9.43c-4.57,-1.58 -11.16,-4.14 -14.65,-5.7c-3.49,-1.55 -6.53,-2.82 -6.75,-2.82c-0.23,0 -0.41,0.37 -0.41,0.83c0,0.45 1.36,2.88 3.03,5.4c1.66,2.51 5.46,6.45 8.44,8.75c2.99,2.3 6.11,4.28 6.94,4.4c0.84,0.13 4.8,2.31 8.81,4.86c4,2.54 10.21,7.35 13.78,10.68c3.57,3.33 6.84,6.06 7.25,6.07zm-89.37,-3.14c2.22,0.14 2.34,-0.1 1.7,-3.6c-0.38,-2.06 -1.07,-6.56 -1.54,-10c-0.48,-3.54 -1.94,-8.11 -3.37,-10.55c-1.39,-2.37 -4.56,-6.19 -7.04,-8.47c-2.48,-2.29 -5.68,-4.46 -7.12,-4.82c-1.43,-0.36 -4.97,-0.45 -7.86,-0.21c-3.75,0.31 -6.54,1.32 -9.74,3.52c-2.47,1.69 -7.73,6.38 -11.7,10.42c-6,6.09 -6.92,7.45 -5.47,8.02c0.97,0.39 6.8,0.73 12.95,0.77c10.24,0.06 11.43,0.27 13.91,2.41c1.57,1.34 2.42,2.83 2,3.5c-0.39,0.64 -2.6,1.21 -4.91,1.28c-2.3,0.06 -5.54,0.44 -7.19,0.84c-3,0.72 -3,0.72 -0.18,1.88c1.54,0.64 4.69,1.21 7,1.26c2.3,0.06 9.13,0.9 15.18,1.86c6.05,0.96 12.07,1.81 13.38,1.89zm399.13,0.02c0.83,0.07 3.05,-0.31 4.94,-0.86c1.89,-0.54 5.18,-2.68 7.32,-4.75c2.14,-2.07 4.3,-4.52 4.81,-5.45c0.6,-1.09 0.52,-2.6 -0.23,-4.24c-0.64,-1.4 -2.19,-3.21 -3.44,-4.04c-1.26,-0.82 -4.4,-1.97 -6.98,-2.55c-3.29,-0.73 -5.65,-0.73 -7.89,0.01c-2.15,0.71 -3.75,2.22 -4.9,4.63c-0.94,1.98 -1.44,4.45 -1.1,5.49c0.48,1.53 -0.28,2.28 -3.86,3.81c-2.45,1.05 -4.75,2.38 -5.1,2.95c-0.35,0.56 0.38,1.57 1.62,2.24c1.24,0.66 4.74,1.52 7.78,1.91c3.03,0.4 6.2,0.78 7.03,0.85zm-174.89,-9.87c1.16,0 6.23,-2.05 11.25,-4.57c5.03,-2.51 11.29,-6.12 13.92,-8.03c2.63,-1.91 4.55,-3.84 4.27,-4.3c-0.28,-0.46 -4.68,0.16 -9.78,1.36c-5.11,1.21 -10.25,2.71 -11.43,3.35c-1.18,0.63 -3.99,3.25 -6.25,5.81c-2.25,2.56 -4.1,5.05 -4.1,5.52c0,0.47 0.95,0.86 2.12,0.86zm-326.51,-4c1.92,0 4.93,-0.74 6.69,-1.64c1.76,-0.9 5.12,-3 7.46,-4.67c3.98,-2.85 5.08,-3.1 16.9,-3.89c12.65,-0.85 12.65,-0.85 19.92,-5.38c4,-2.49 7.82,-5.2 8.5,-6.02c0.79,-0.95 0.89,-1.83 0.27,-2.45c-0.52,-0.52 -4.31,-1.39 -8.4,-1.92c-4.1,-0.53 -11.28,-0.98 -15.96,-1c-4.68,-0.02 -10.02,-0.46 -11.87,-1c-2.12,-0.6 -5.36,-3.17 -8.76,-6.92c-3.56,-3.93 -6.9,-6.53 -9.83,-7.65c-2.82,-1.08 -5.66,-1.47 -7.78,-1.07c-2.1,0.39 -5.86,2.86 -10.09,6.62c-6.76,5.99 -6.76,5.99 -15.64,5.99c-4.89,0 -10.16,0.48 -11.7,1.06c-1.55,0.59 -4.28,2.47 -6.07,4.2c-1.79,1.72 -3.25,4.12 -3.25,5.32c0,1.42 0.79,2.4 2.25,2.79c1.24,0.33 5.68,0.89 9.86,1.25c4.19,0.35 10.15,0.33 13.25,-0.06c3.1,-0.39 6.28,-1.35 7.07,-2.13c0.78,-0.79 2.92,-1.37 4.75,-1.29c2.73,0.11 2.87,0.21 0.82,0.58c-1.38,0.25 -2.89,0.82 -3.36,1.27c-0.47,0.45 -0.01,1.28 1.03,1.83c1.04,0.56 5.39,1.5 9.68,2.1c4.29,0.59 10.01,1.08 12.72,1.08c2.71,0 4.93,0.38 4.93,0.85c0,0.46 -0.8,1.57 -1.79,2.46c-0.98,0.89 -3.45,2.31 -5.5,3.15c-2.04,0.85 -5.32,2.21 -7.28,3.02c-1.97,0.81 -3.29,1.94 -2.94,2.5c0.34,0.56 2.2,1.02 4.12,1.02zm112.31,-5.01c0.87,-0.01 3.83,-1.07 6.58,-2.36c2.75,-1.29 5.84,-3.29 6.87,-4.45c1.26,-1.42 1.67,-2.9 1.25,-4.56c-0.34,-1.36 -2.98,-4.46 -5.87,-6.91c-2.89,-2.44 -6.21,-4.94 -7.38,-5.55c-1.17,-0.6 -6.46,-1.41 -11.75,-1.78c-5.29,-0.37 -9.62,-0.34 -9.62,0.08c0,0.42 2.36,3.09 5.25,5.93c2.92,2.88 6.75,8.14 8.63,11.86c1.86,3.67 3.62,6.92 3.92,7.22c0.29,0.29 1.25,0.53 2.12,0.52zm100.11,-2.51c0.47,-0.29 0.17,-2.14 -0.65,-4.12c-0.83,-1.98 -2.58,-5.29 -3.88,-7.36c-1.3,-2.07 -3.3,-6.62 -4.43,-10.13c-1.13,-3.5 -2.33,-7.72 -2.67,-9.37c-0.62,-3 -0.62,-3 -1.57,-0.5c-0.53,1.38 -0.99,6.2 -1.03,10.73c-0.04,6.04 0.38,8.89 1.59,10.74c0.9,1.38 3.93,4.31 6.72,6.52c2.79,2.21 5.46,3.78 5.92,3.49zm-165.28,-38.58c5.22,0.1 5.25,0.08 5.25,-2.98c0,-3.08 0,-3.08 3.48,-0.93c1.92,1.18 3.91,1.88 4.44,1.56c0.56,-0.35 0.71,-3.52 0.37,-7.57c-0.34,-4.09 -0.19,-6.98 0.36,-6.98c0.51,0 2.92,2.02 5.35,4.5c2.43,2.48 5.06,4.5 5.84,4.5c1.13,0 1.3,-1.02 0.82,-4.75c-0.61,-4.75 -0.61,-4.75 1.82,-1.79c1.34,1.63 2.65,2.75 2.91,2.48c0.27,-0.26 1.42,-2.65 2.55,-5.31c2.07,-4.82 2.07,-4.82 -0.91,-10.98c-1.64,-3.38 -5.49,-9.3 -8.57,-13.15c-3.07,-3.85 -6.71,-8.01 -8.08,-9.25c-1.84,-1.66 -3.72,-2.25 -7.19,-2.25c-2.58,0 -7.84,-0.91 -11.69,-2.02c-3.85,-1.11 -11.76,-2.3 -17.58,-2.64c-5.82,-0.35 -12.22,-0.32 -14.22,0.06c-2,0.37 -5,1.83 -6.67,3.23c-1.86,1.56 -3.03,3.5 -3.03,5c0,1.99 1,2.93 5.25,4.91c2.89,1.34 5.79,2.44 6.45,2.45c0.66,0.01 2.46,1.67 4,3.69c1.54,2.03 5.41,5.61 8.61,7.96c3.28,2.42 8.82,5.25 12.75,6.52c6.7,2.16 6.94,2.35 6.94,5.48c0,1.78 -0.47,3.53 -1.03,3.88c-0.57,0.35 -4.51,0.86 -8.75,1.12c-4.25,0.27 -8.73,0.69 -9.97,0.94c-1.24,0.25 -2.25,0.83 -2.25,1.3c0,0.46 2.59,2.77 5.75,5.14c3.16,2.38 7.1,4.65 8.75,5.05c1.65,0.4 5.36,0.77 8.25,0.83zm-84.5,-7.96c0.41,0.03 0.75,-0.36 0.75,-0.87c0,-0.51 -0.69,-1.62 -1.53,-2.46c-0.84,-0.84 -3.07,-1.82 -4.95,-2.17c-1.88,-0.35 -4,-0.42 -4.72,-0.15c-0.71,0.27 1.17,1.64 4.2,3.04c3.03,1.41 5.84,2.58 6.25,2.61zm45.22,-22.57c1.63,-0.23 3.41,-0.85 3.96,-1.4c0.65,-0.65 0.49,-1.47 -0.47,-2.42c-0.88,-0.86 -4.67,-1.72 -9.46,-2.12c-8,-0.69 -8,-0.69 -5.11,2.39c1.58,1.69 4.06,3.27 5.5,3.51c1.43,0.24 3.95,0.26 5.58,0.04zm324.6,-4.37c-1.88,0 -2.07,-0.59 -2.07,-6.34c0,-5.04 0.61,-7.57 2.99,-12.32c1.64,-3.29 4.72,-7.86 6.85,-10.16c2.12,-2.3 4.37,-4.18 5.01,-4.18c0.74,0 1.15,2.08 1.15,5.8c0,5.8 0,5.8 3.43,5.4c3.08,-0.36 3.38,-0.19 2.89,1.7c-0.49,1.87 -0.12,2.1 3.34,2.1c2.14,0 4.9,-0.7 6.12,-1.56c1.24,-0.87 2.22,-1.09 2.22,-0.5c0,0.62 2.28,1.06 5.43,1.06c2.99,0 6.61,-0.44 8.04,-0.99c1.43,-0.54 6.11,-4.59 10.4,-9c5.63,-5.79 8.49,-8.01 10.29,-8.01c2.22,0 2.44,0.34 2.04,3.08c-0.45,3.08 -0.45,3.08 4.17,2.39c2.55,-0.38 4.63,-0.31 4.63,0.17c0,0.47 -2.12,1.98 -4.69,3.36c-2.58,1.38 -4.87,3.06 -5.08,3.75c-0.27,0.83 0.75,1.25 3.06,1.25c1.9,0 8.06,-1.37 13.7,-3.05c5.64,-1.67 10.43,-2.86 10.65,-2.64c0.23,0.22 0.15,1.03 -0.17,1.8c-0.32,0.76 -3.75,3.64 -7.63,6.39c-3.87,2.75 -8.23,5.64 -9.69,6.42c-1.46,0.78 -6.28,1.96 -10.73,2.61c-5.08,0.76 -10.63,2.43 -15,4.52c-5.67,2.72 -8.44,3.4 -15.35,3.77c-4.63,0.25 -12.16,-0.11 -16.74,-0.79c-8.19,-1.22 -8.37,-1.2 -12.75,1.37c-2.44,1.43 -5.37,2.6 -6.51,2.6zm156.43,-23.13c-1.1,-0.05 -2.79,-0.31 -3.75,-0.56c-0.96,-0.25 -1.75,-0.93 -1.75,-1.51c0,-0.57 2.92,-3.84 6.5,-7.26c3.58,-3.42 6.5,-6.77 6.5,-7.45c0,-0.67 -0.51,-2.2 -1.12,-3.41c-0.62,-1.2 -2.05,-3.19 -3.18,-4.43c-2.05,-2.25 -2.05,-2.25 0.64,-2.25c1.64,0 4.07,1.27 6.24,3.25c2.62,2.4 3.69,4.33 4.1,7.4c0.43,3.2 -0.04,5.41 -2.03,9.62c-2.31,4.9 -2.97,5.52 -6.36,6.08c-2.09,0.35 -4.69,0.58 -5.79,0.52zm-268.1,-2.87c-0.2,0 -0.56,-1.01 -0.8,-2.25c-0.24,-1.24 -1.13,-9 -1.98,-17.25c-0.85,-8.25 -1.83,-18.81 -2.17,-23.47c-0.35,-4.66 -1.25,-9.68 -2.02,-11.17c-0.77,-1.49 -2.87,-3.73 -4.66,-4.99c-1.8,-1.26 -5.86,-4.75 -9.03,-7.74c-4.39,-4.15 -6.11,-6.64 -7.23,-10.42c-0.82,-2.74 -1.74,-7.73 -2.05,-11.09c-0.33,-3.64 -0.13,-6.73 0.5,-7.62c0.9,-1.28 1.34,-1.13 3.04,1c1.09,1.38 3.22,5.61 4.74,9.42c1.65,4.13 4.24,8.39 6.44,10.57c2.03,2 5.49,4.46 7.7,5.46c2.21,0.99 4.71,1.54 5.57,1.21c0.85,-0.33 1.55,-1.7 1.55,-3.06c0,-1.35 0.71,-3.17 1.58,-4.04c0.87,-0.86 2.45,-2.04 3.51,-2.61c1.61,-0.86 2.09,-0.61 2.9,1.53c0.54,1.42 1.45,5.53 2.03,9.14c0.72,4.54 0.73,8.29 0.01,12.16c-0.56,3.07 -1.03,9.3 -1.03,13.84c0,4.55 0.41,8.52 0.91,8.83c0.51,0.31 1.91,-1.04 3.12,-3c1.21,-1.95 4.4,-6.12 7.09,-9.25c2.69,-3.14 5.79,-7.53 6.89,-9.77c1.19,-2.43 1.99,-6.1 1.99,-9.14c0,-2.79 -0.89,-7.94 -1.99,-11.43c-1.38,-4.44 -3.47,-8.09 -6.91,-12.09c-4.7,-5.47 -4.96,-6.07 -5.64,-13.34c-0.39,-4.18 -0.32,-9.89 0.16,-12.67c0.88,-5.07 0.88,-5.07 4.04,-2.4c3.16,2.67 3.16,2.67 8.28,-4.1c3.1,-4.1 5.79,-9.02 6.84,-12.51c0.94,-3.16 2.17,-5.6 2.72,-5.42c0.55,0.17 1.62,1.59 2.38,3.15c0.75,1.55 1.6,5.67 1.88,9.14c0.32,4.01 0.03,7.52 -0.8,9.6c-0.72,1.8 -3.25,5.91 -5.63,9.13c-4.16,5.62 -4.33,6.13 -4.32,13c0,3.93 0.47,8.84 1.04,10.9c0.58,2.06 1.48,3.75 2.01,3.75c0.53,0 3.18,-2.36 5.88,-5.24c2.71,-2.88 5.17,-4.98 5.47,-4.68c0.31,0.3 0.74,3 0.97,5.99c0.23,2.98 0.46,7.79 0.52,10.68c0.07,3.75 0.5,5.25 1.48,5.25c0.76,0 1.92,-1.46 2.58,-3.25c0.66,-1.79 2.01,-5.06 3,-7.28c0.99,-2.22 3.02,-5.48 4.51,-7.25c1.49,-1.77 3.34,-3.22 4.12,-3.22c1,0 1.41,1.29 1.41,4.5c0,2.47 0.35,4.5 0.78,4.5c0.43,0 1.77,-0.7 2.98,-1.55c1.22,-0.85 3.45,-3.66 4.97,-6.25c2.77,-4.7 2.77,-4.7 3.08,-0.9c0.23,2.7 -0.43,5.08 -2.25,8.18c-1.41,2.41 -2.56,4.86 -2.56,5.45c0,0.59 1.11,1.07 2.47,1.07c1.35,0 4.03,-1.38 5.96,-3.07c1.92,-1.69 4.49,-4.68 5.71,-6.65c2.03,-3.29 2.12,-4.03 1.05,-9.1c-0.63,-3.03 -2.14,-6.56 -3.33,-7.83c-2.04,-2.17 -2.11,-2.67 -0.98,-7.72c0.67,-2.97 2.8,-8.04 4.73,-11.27c1.94,-3.22 4.7,-7.1 6.14,-8.61c1.45,-1.51 3.66,-2.75 4.94,-2.75c1.27,0 2.31,0.47 2.31,1.04c0,0.57 -0.89,2.78 -1.97,4.9c-1.31,2.57 -2.35,7.77 -3.11,15.48c-0.62,6.38 -0.85,12.73 -0.51,14.09c0.35,1.37 1.19,2.49 1.88,2.49c0.7,0 3.95,-1.34 7.24,-2.97c3.28,-1.63 6.59,-2.98 7.35,-3c0.76,-0.02 2.92,-0.98 4.8,-2.14c1.89,-1.17 3.64,-1.9 3.91,-1.63c0.27,0.27 -1.44,2.73 -3.8,5.48c-2.36,2.74 -9.02,9.27 -14.79,14.49c-5.77,5.23 -11.62,10.73 -13,12.23c-1.38,1.51 -4.22,3.62 -6.32,4.69c-2.42,1.24 -7.19,2.25 -13,2.75c-6.31,0.53 -10.54,1.48 -13.53,3.01c-2.39,1.23 -6.37,4.09 -8.83,6.37c-2.47,2.27 -5.3,5.73 -6.28,7.68c-0.99,1.94 -2.12,5.05 -2.52,6.89c-0.55,2.57 -4.77,7.37 -18.24,20.75c-9.64,9.57 -17.69,17.4 -17.88,17.4zm-48.45,-22c1.68,0 3.05,-0.34 3.05,-0.75c0,-0.41 -1.95,-3.22 -4.32,-6.25c-2.38,-3.03 -5.96,-6.38 -7.96,-7.46c-2,-1.07 -3.94,-1.66 -4.3,-1.29c-0.36,0.36 -0.36,1.84 0,3.29c0.37,1.45 2.87,4.85 5.57,7.55c3.74,3.73 5.65,4.91 7.96,4.91zm279.3,-40.02c-1.52,0.01 -2.25,-0.57 -2.25,-1.81c0,-1 1.01,-2.72 2.25,-3.81c1.24,-1.1 3.49,-2.76 5,-3.7c1.69,-1.05 2.75,-2.58 2.75,-3.98c0,-1.26 -0.54,-2.82 -1.2,-3.48c-0.66,-0.66 -0.83,-1.2 -0.37,-1.2c0.46,0 2.35,0.94 4.2,2.08c1.86,1.15 3.65,3.2 3.99,4.56c0.45,1.79 -0.03,3.18 -1.75,5.05c-1.3,1.41 -4.17,3.4 -6.37,4.42c-2.2,1.02 -5.01,1.86 -6.25,1.87zm-58.55,-21.45c-2.97,0.56 -3.7,0.39 -3.7,-0.85c0,-0.85 3.01,-4.17 6.7,-7.37c3.68,-3.19 8.5,-7.45 10.71,-9.45c3.48,-3.16 3.83,-3.86 2.68,-5.25c-1.18,-1.42 -0.96,-1.61 1.89,-1.61c2.33,0 4.16,0.94 6.62,3.4c2.87,2.87 3.4,4.11 3.4,7.93c0,2.78 -0.61,5.13 -1.57,6.1c-0.87,0.86 -2.94,1.57 -4.61,1.57c-2.94,0 -3.02,-0.12 -2.39,-3.5c0.37,-1.93 0.28,-3.5 -0.18,-3.5c-0.47,0 -2.62,1.84 -4.8,4.08c-2.17,2.25 -5.55,4.91 -7.5,5.92c-1.95,1.01 -5.21,2.15 -7.25,2.53zm-166.45,-14.55c-0.41,-0.01 -3.07,-2.15 -5.91,-4.75c-2.83,-2.6 -6.6,-5.82 -8.37,-7.16c-1.77,-1.34 -3.88,-4 -4.68,-5.93c-0.99,-2.37 -1.25,-4.96 -0.79,-8.07c0.36,-2.51 1.5,-6.48 2.53,-8.82c1.02,-2.34 2.28,-4.25 2.79,-4.25c0.51,0 1.21,1.41 1.56,3.12c0.34,1.72 0.62,6.26 0.62,10.08c0,6.95 0,6.95 5.35,12.62c2.94,3.13 5.87,7.21 6.5,9.08c0.63,1.87 1.15,3.56 1.15,3.75c0,0.19 -0.34,0.34 -0.75,0.33zm123.54,-12c-0.71,0 -1.91,-0.41 -2.68,-0.89c-0.91,-0.58 -1.17,-1.77 -0.75,-3.48c0.35,-1.44 0.9,-3.66 1.23,-4.95c0.53,-2.13 0.31,-2.3 -2.5,-1.89c-1.99,0.3 -3.09,0.03 -3.09,-0.74c0,-0.66 1.57,-4.02 3.5,-7.46c2.1,-3.77 3.5,-7.63 3.5,-9.69c0,-1.89 -0.73,-4.48 -1.63,-5.76c-1.56,-2.23 -1.55,-2.29 0.34,-1.28c1.08,0.58 3.59,2.85 5.57,5.05c1.98,2.19 3.86,5.48 4.16,7.3c0.3,1.82 0.67,5.34 0.81,7.81c0.25,4.5 0.25,4.5 6,5.21c3.16,0.4 6.76,1.24 8,1.88c1.24,0.64 3.04,1.85 4,2.69c0.96,0.84 1.75,2.59 1.75,3.87c0,1.54 -0.58,2.35 -1.69,2.35c-0.92,0 -2.76,-1.01 -4.08,-2.25c-1.87,-1.76 -3.52,-2.23 -7.56,-2.18c-3.23,0.05 -6.75,0.89 -9.38,2.25c-2.32,1.2 -4.79,2.17 -5.5,2.16zm-221.31,-16.48c-2.33,0.51 -3.45,0.19 -4.88,-1.39c-1.65,-1.83 -1.72,-2.57 -0.66,-6.83c0.65,-2.63 1.84,-5.78 2.63,-7.01c0.8,-1.23 2.88,-2.97 4.64,-3.88c2.49,-1.29 4.97,-1.54 11.33,-1.14c4.65,0.29 9.72,1.25 11.81,2.24c2.01,0.96 3.65,2.31 3.65,3.02c0,0.99 -2.33,1.16 -10.27,0.75c-8.59,-0.44 -10.48,-0.26 -11.58,1.06c-0.73,0.88 -1.02,2.07 -0.66,2.66c0.36,0.59 2.32,1.85 4.34,2.8c2.29,1.08 3.79,2.54 3.98,3.88c0.28,1.95 -0.25,2.21 -5.5,2.67c-3.2,0.27 -7.17,0.8 -8.83,1.17zm182.5,-5.5c-0.56,0 -2.36,-2.11 -4,-4.7c-1.64,-2.58 -2.98,-5.5 -2.98,-6.5c0,-1.11 0.74,-1.8 1.93,-1.8c1.06,0 2.86,1.19 4,2.63c1.28,1.64 2.07,4.11 2.07,6.5c0,2.13 -0.46,3.87 -1.02,3.87zm-137.29,-3.07c-1.2,-0.03 -4.3,-0.63 -6.88,-1.33c-2.59,-0.69 -5.4,-1.84 -6.25,-2.55c-0.86,-0.71 -1.56,-2.62 -1.56,-4.24c0,-1.62 0.97,-5.2 2.16,-7.96c1.91,-4.44 2.79,-5.3 7.74,-7.49c3.07,-1.35 7.43,-2.72 9.69,-3.03c2.42,-0.33 5.05,-0.06 6.4,0.67c2.27,1.21 2.24,1.26 -2.1,3.96c-2.41,1.5 -5,3.46 -5.74,4.36c-1.15,1.38 -1.04,2.01 0.75,4.28c1.16,1.47 2.1,3.09 2.1,3.6c0,0.53 -1.92,0.63 -4.5,0.25c-3.55,-0.53 -4.5,-0.37 -4.5,0.75c0,0.78 1.33,2.7 2.96,4.27c1.63,1.56 2.73,3.22 2.45,3.68c-0.29,0.47 -1.51,0.82 -2.72,0.78zm110.19,-9.93c-1.48,0 -1.88,-0.74 -1.88,-3.43c0,-2.51 0.7,-3.98 2.63,-5.5c1.45,-1.14 3.38,-2.07 4.28,-2.07c0.91,0 2.64,0.7 3.86,1.55c1.22,0.85 2.72,2.5 3.34,3.65c1.07,2 0.94,2.06 -2.97,1.44c-3.62,-0.58 -4.27,-0.37 -5.73,1.85c-0.9,1.38 -2.49,2.51 -3.53,2.51zm-78.34,-6c-0.81,0 -1.94,-0.87 -2.5,-1.93c-0.57,-1.07 -1.04,-3.25 -1.04,-4.85c0,-1.6 0.86,-3.68 1.9,-4.63c1.28,-1.16 3.16,-1.62 5.74,-1.41c2.58,0.22 3.94,0.85 4.15,1.94c0.19,0.99 -1.08,2.44 -3.24,3.72c-2.58,1.52 -3.55,2.78 -3.55,4.63c0,1.55 -0.56,2.53 -1.46,2.53zm54.22,-4.33c-1.41,1.41 -1.62,1.35 -2.23,-0.59c-0.38,-1.17 -1.84,-2.89 -3.25,-3.82c-2.52,-1.65 -2.62,-1.61 -5.36,1.66c-1.81,2.17 -3.34,3.13 -4.35,2.74c-0.92,-0.35 -1.57,-1.79 -1.57,-3.48c0,-1.58 0.49,-4.3 1.1,-6.03c0.97,-2.78 1.54,-3.15 4.85,-3.15c2.25,0 5.11,0.91 7.12,2.27c2.01,1.35 3.75,3.59 4.31,5.55c0.73,2.57 0.6,3.63 -0.62,4.85z" fill="#477f71" fill-rule="evenodd" id="svg_1" stroke-opacity="0.91"/>
 </g></svg>