<svg id="wave" style="transform:rotate(180deg); transition: 0.3s" viewBox="0 0 1440 440" version="1.1" xmlns="http://www.w3.org/2000/svg"><defs><linearGradient id="sw-gradient-0" x1="0" x2="0" y1="1" y2="0"><stop stop-color="rgba(215.083, 163.821, 218.892, 1)" offset="0%"></stop><stop stop-color="rgba(183.501, 158.566, 198.401, 1)" offset="100%"></stop></linearGradient></defs><path style="transform:translate(0, 0px); opacity:1" fill="url(#sw-gradient-0)" d="M0,352L26.7,352C53.3,352,107,352,160,308C213.3,264,267,176,320,168.7C373.3,161,427,235,480,249.3C533.3,264,587,220,640,205.3C693.3,191,747,205,800,212.7C853.3,220,907,220,960,212.7C1013.3,205,1067,191,1120,190.7C1173.3,191,1227,205,1280,220C1333.3,235,1387,249,1440,249.3C1493.3,249,1547,235,1600,256.7C1653.3,279,1707,337,1760,344.7C1813.3,352,1867,308,1920,249.3C1973.3,191,2027,117,2080,95.3C2133.3,73,2187,103,2240,110C2293.3,117,2347,103,2400,110C2453.3,117,2507,147,2560,198C2613.3,249,2667,323,2720,315.3C2773.3,308,2827,220,2880,183.3C2933.3,147,2987,161,3040,183.3C3093.3,205,3147,235,3200,249.3C3253.3,264,3307,264,3360,286C3413.3,308,3467,352,3520,352C3573.3,352,3627,308,3680,264C3733.3,220,3787,176,3813,154L3840,132L3840,440L3813.3,440C3786.7,440,3733,440,3680,440C3626.7,440,3573,440,3520,440C3466.7,440,3413,440,3360,440C3306.7,440,3253,440,3200,440C3146.7,440,3093,440,3040,440C2986.7,440,2933,440,2880,440C2826.7,440,2773,440,2720,440C2666.7,440,2613,440,2560,440C2506.7,440,2453,440,2400,440C2346.7,440,2293,440,2240,440C2186.7,440,2133,440,2080,440C2026.7,440,1973,440,1920,440C1866.7,440,1813,440,1760,440C1706.7,440,1653,440,1600,440C1546.7,440,1493,440,1440,440C1386.7,440,1333,440,1280,440C1226.7,440,1173,440,1120,440C1066.7,440,1013,440,960,440C906.7,440,853,440,800,440C746.7,440,693,440,640,440C586.7,440,533,440,480,440C426.7,440,373,440,320,440C266.7,440,213,440,160,440C106.7,440,53,440,27,440L0,440Z"></path><defs><linearGradient id="sw-gradient-1" x1="0" x2="0" y1="1" y2="0"><stop stop-color="rgba(223.445, 129.384, 217.205, 1)" offset="0%"></stop><stop stop-color="rgba(178.997, 128.106, 205.231, 1)" offset="100%"></stop></linearGradient></defs><path style="transform:translate(0, 50px); opacity:0.9" fill="url(#sw-gradient-1)" d="M0,88L26.7,132C53.3,176,107,264,160,315.3C213.3,367,267,381,320,374C373.3,367,427,337,480,278.7C533.3,220,587,132,640,102.7C693.3,73,747,103,800,95.3C853.3,88,907,44,960,36.7C1013.3,29,1067,59,1120,58.7C1173.3,59,1227,29,1280,29.3C1333.3,29,1387,59,1440,73.3C1493.3,88,1547,88,1600,117.3C1653.3,147,1707,205,1760,205.3C1813.3,205,1867,147,1920,132C1973.3,117,2027,147,2080,139.3C2133.3,132,2187,88,2240,102.7C2293.3,117,2347,191,2400,227.3C2453.3,264,2507,264,2560,234.7C2613.3,205,2667,147,2720,124.7C2773.3,103,2827,117,2880,132C2933.3,147,2987,161,3040,154C3093.3,147,3147,117,3200,139.3C3253.3,161,3307,235,3360,264C3413.3,293,3467,279,3520,286C3573.3,293,3627,323,3680,278.7C3733.3,235,3787,117,3813,58.7L3840,0L3840,440L3813.3,440C3786.7,440,3733,440,3680,440C3626.7,440,3573,440,3520,440C3466.7,440,3413,440,3360,440C3306.7,440,3253,440,3200,440C3146.7,440,3093,440,3040,440C2986.7,440,2933,440,2880,440C2826.7,440,2773,440,2720,440C2666.7,440,2613,440,2560,440C2506.7,440,2453,440,2400,440C2346.7,440,2293,440,2240,440C2186.7,440,2133,440,2080,440C2026.7,440,1973,440,1920,440C1866.7,440,1813,440,1760,440C1706.7,440,1653,440,1600,440C1546.7,440,1493,440,1440,440C1386.7,440,1333,440,1280,440C1226.7,440,1173,440,1120,440C1066.7,440,1013,440,960,440C906.7,440,853,440,800,440C746.7,440,693,440,640,440C586.7,440,533,440,480,440C426.7,440,373,440,320,440C266.7,440,213,440,160,440C106.7,440,53,440,27,440L0,440Z"></path></svg>