<svg id="wave" style="transform:scale(2)rotate(180deg); transition: 0.3s" viewBox="0 0 1440 490"
    version="1.1" xmlns="http://www.w3.org/2000/svg">
    <defs>
        <linearGradient id="sw-gradient-0" x1="0" x2="0" y1="1" y2="0">
            <stop stop-color="rgba(146.034, 7.884, 113.471, 1)" offset="0%"></stop>
            <stop stop-color="rgba(27.642, 19.934, 2.897, 1)" offset="100%"></stop>
        </linearGradient>
    </defs>
    <path style="transform:translate(0, 0px); opacity:1" fill="url(#sw-gradient-0)"
        d="M0,245L48,269.5C96,294,192,343,288,351.2C384,359,480,327,576,310.3C672,294,768,294,864,277.7C960,261,1056,229,1152,196C1248,163,1344,131,1440,114.3C1536,98,1632,98,1728,98C1824,98,1920,98,2016,147C2112,196,2208,294,2304,343C2400,392,2496,392,2592,375.7C2688,359,2784,327,2880,334.8C2976,343,3072,392,3168,392C3264,392,3360,343,3456,277.7C3552,212,3648,131,3744,138.8C3840,147,3936,245,4032,302.2C4128,359,4224,376,4320,351.2C4416,327,4512,261,4608,204.2C4704,147,4800,98,4896,130.7C4992,163,5088,278,5184,310.3C5280,343,5376,294,5472,236.8C5568,180,5664,114,5760,81.7C5856,49,5952,49,6048,40.8C6144,33,6240,16,6336,32.7C6432,49,6528,98,6624,106.2C6720,114,6816,82,6864,65.3L6912,49L6912,490L6864,490C6816,490,6720,490,6624,490C6528,490,6432,490,6336,490C6240,490,6144,490,6048,490C5952,490,5856,490,5760,490C5664,490,5568,490,5472,490C5376,490,5280,490,5184,490C5088,490,4992,490,4896,490C4800,490,4704,490,4608,490C4512,490,4416,490,4320,490C4224,490,4128,490,4032,490C3936,490,3840,490,3744,490C3648,490,3552,490,3456,490C3360,490,3264,490,3168,490C3072,490,2976,490,2880,490C2784,490,2688,490,2592,490C2496,490,2400,490,2304,490C2208,490,2112,490,2016,490C1920,490,1824,490,1728,490C1632,490,1536,490,1440,490C1344,490,1248,490,1152,490C1056,490,960,490,864,490C768,490,672,490,576,490C480,490,384,490,288,490C192,490,96,490,48,490L0,490Z"></path>
    <defs>
        <linearGradient id="sw-gradient-1" x1="0" x2="0" y1="1" y2="0">
            <stop stop-color="rgba(125.543, 12.448, 102.717, 1)" offset="0%"></stop>
            <stop stop-color="rgba(23.088, 1.898, 14.504, 1)" offset="100%"></stop>
        </linearGradient>
    </defs>
    <path style="transform:translate(0, 50px); opacity:0.9" fill="url(#sw-gradient-1)"
        d="M0,441L48,424.7C96,408,192,376,288,343C384,310,480,278,576,228.7C672,180,768,114,864,73.5C960,33,1056,16,1152,57.2C1248,98,1344,196,1440,212.3C1536,229,1632,163,1728,138.8C1824,114,1920,131,2016,171.5C2112,212,2208,278,2304,269.5C2400,261,2496,180,2592,179.7C2688,180,2784,261,2880,310.3C2976,359,3072,376,3168,367.5C3264,359,3360,327,3456,285.8C3552,245,3648,196,3744,220.5C3840,245,3936,343,4032,334.8C4128,327,4224,212,4320,155.2C4416,98,4512,98,4608,138.8C4704,180,4800,261,4896,302.2C4992,343,5088,343,5184,351.2C5280,359,5376,376,5472,359.3C5568,343,5664,294,5760,269.5C5856,245,5952,245,6048,204.2C6144,163,6240,82,6336,65.3C6432,49,6528,98,6624,138.8C6720,180,6816,212,6864,228.7L6912,245L6912,490L6864,490C6816,490,6720,490,6624,490C6528,490,6432,490,6336,490C6240,490,6144,490,6048,490C5952,490,5856,490,5760,490C5664,490,5568,490,5472,490C5376,490,5280,490,5184,490C5088,490,4992,490,4896,490C4800,490,4704,490,4608,490C4512,490,4416,490,4320,490C4224,490,4128,490,4032,490C3936,490,3840,490,3744,490C3648,490,3552,490,3456,490C3360,490,3264,490,3168,490C3072,490,2976,490,2880,490C2784,490,2688,490,2592,490C2496,490,2400,490,2304,490C2208,490,2112,490,2016,490C1920,490,1824,490,1728,490C1632,490,1536,490,1440,490C1344,490,1248,490,1152,490C1056,490,960,490,864,490C768,490,672,490,576,490C480,490,384,490,288,490C192,490,96,490,48,490L0,490Z"></path>
</svg>