<svg id="wave" style="transform:rotate(180deg); transition: 0.3s" viewBox="0 0 1440 480"
    version="1.1" xmlns="http://www.w3.org/2000/svg">
    <defs>
        <linearGradient id="sw-gradient-0" x1="0" x2="0" y1="1" y2="0">
            <stop stop-color="rgba(46.281, 94.096, 168.802, 1)" offset="0%"></stop>
            <stop stop-color="rgba(171.079, 25.656, 131.875, 1)" offset="100%"></stop>
        </linearGradient>
    </defs>
    <path style="transform:translate(0, 0px); opacity:1" fill="url(#sw-gradient-0)"
        d="M0,48L40,56C80,64,160,80,240,104C320,128,400,160,480,208C560,256,640,320,720,296C800,272,880,160,960,152C1040,144,1120,240,1200,288C1280,336,1360,336,1440,304C1520,272,1600,208,1680,160C1760,112,1840,80,1920,72C2000,64,2080,80,2160,128C2240,176,2320,256,2400,312C2480,368,2560,400,2640,384C2720,368,2800,304,2880,240C2960,176,3040,112,3120,120C3200,128,3280,208,3360,256C3440,304,3520,320,3600,296C3680,272,3760,208,3840,176C3920,144,4000,144,4080,136C4160,128,4240,112,4320,104C4400,96,4480,96,4560,112C4640,128,4720,160,4800,168C4880,176,4960,160,5040,152C5120,144,5200,144,5280,120C5360,96,5440,48,5520,40C5600,32,5680,64,5720,80L5760,96L5760,480L5720,480C5680,480,5600,480,5520,480C5440,480,5360,480,5280,480C5200,480,5120,480,5040,480C4960,480,4880,480,4800,480C4720,480,4640,480,4560,480C4480,480,4400,480,4320,480C4240,480,4160,480,4080,480C4000,480,3920,480,3840,480C3760,480,3680,480,3600,480C3520,480,3440,480,3360,480C3280,480,3200,480,3120,480C3040,480,2960,480,2880,480C2800,480,2720,480,2640,480C2560,480,2480,480,2400,480C2320,480,2240,480,2160,480C2080,480,2000,480,1920,480C1840,480,1760,480,1680,480C1600,480,1520,480,1440,480C1360,480,1280,480,1200,480C1120,480,1040,480,960,480C880,480,800,480,720,480C640,480,560,480,480,480C400,480,320,480,240,480C160,480,80,480,40,480L0,480Z"></path>
    <defs>
        <linearGradient id="sw-gradient-1" x1="0" x2="0" y1="1" y2="0">
            <stop stop-color="rgba(41.432, 9.95, 66.347, 1)" offset="0%"></stop>
            <stop stop-color="rgba(100.914, 35.129, 125.543, 1)" offset="100%"></stop>
        </linearGradient>
    </defs>
    <path style="transform:translate(0, 50px); opacity:0.9" fill="url(#sw-gradient-1)"
        d="M0,336L40,320C80,304,160,272,240,280C320,288,400,336,480,328C560,320,640,256,720,200C800,144,880,96,960,72C1040,48,1120,48,1200,56C1280,64,1360,80,1440,72C1520,64,1600,32,1680,40C1760,48,1840,96,1920,104C2000,112,2080,80,2160,80C2240,80,2320,112,2400,144C2480,176,2560,208,2640,256C2720,304,2800,368,2880,368C2960,368,3040,304,3120,304C3200,304,3280,368,3360,400C3440,432,3520,432,3600,424C3680,416,3760,400,3840,368C3920,336,4000,288,4080,296C4160,304,4240,368,4320,328C4400,288,4480,144,4560,80C4640,16,4720,32,4800,64C4880,96,4960,144,5040,200C5120,256,5200,320,5280,336C5360,352,5440,320,5520,312C5600,304,5680,320,5720,328L5760,336L5760,480L5720,480C5680,480,5600,480,5520,480C5440,480,5360,480,5280,480C5200,480,5120,480,5040,480C4960,480,4880,480,4800,480C4720,480,4640,480,4560,480C4480,480,4400,480,4320,480C4240,480,4160,480,4080,480C4000,480,3920,480,3840,480C3760,480,3680,480,3600,480C3520,480,3440,480,3360,480C3280,480,3200,480,3120,480C3040,480,2960,480,2880,480C2800,480,2720,480,2640,480C2560,480,2480,480,2400,480C2320,480,2240,480,2160,480C2080,480,2000,480,1920,480C1840,480,1760,480,1680,480C1600,480,1520,480,1440,480C1360,480,1280,480,1200,480C1120,480,1040,480,960,480C880,480,800,480,720,480C640,480,560,480,480,480C400,480,320,480,240,480C160,480,80,480,40,480L0,480Z"></path>
</svg>