<svg id="visual" viewBox="0 0 900 600" width="900" height="600" xmlns="http://www.w3.org/2000/svg" xmlns:xlink="http://www.w3.org/1999/xlink" version="1.1"><rect x="0" y="0" width="900" height="600" fill="#083d3b"></rect><path d="M0 548L15 538.7C30 529.3 60 510.7 90 513.8C120 517 150 542 180 545.2C210 548.3 240 529.7 270 525.8C300 522 330 533 360 535.7C390 538.3 420 532.7 450 538.2C480 543.7 510 560.3 540 566.2C570 572 600 567 630 564.5C660 562 690 562 720 551.2C750 540.3 780 518.7 810 521C840 523.3 870 549.7 885 562.8L900 576L900 601L885 601C870 601 840 601 810 601C780 601 750 601 720 601C690 601 660 601 630 601C600 601 570 601 540 601C510 601 480 601 450 601C420 601 390 601 360 601C330 601 300 601 270 601C240 601 210 601 180 601C150 601 120 601 90 601C60 601 30 601 15 601L0 601Z" fill="#001111" stroke-linecap="round" stroke-linejoin="miter"></path></svg>